<?xml version="1.0" encoding="utf-8"?>
<!-- Generator: Adobe Illustrator 24.0.1, SVG Export Plug-In . SVG Version: 6.00 Build 0)  -->
<svg version="1.1" id="bg_2_" xmlns="http://www.w3.org/2000/svg" xmlns:xlink="http://www.w3.org/1999/xlink" x="0px" y="0px"
	 viewBox="0 0 517 677.7" style="enable-background:new 0 0 517 677.7;" xml:space="preserve">
<style type="text/css">
	.bg1{fill-rule:evenodd;clip-rule:evenodd;fill:#FFFFFF;}
	.bg2{fill:#3D3F62;}
	.bg3{font-family:'OpenSans-Bold';}
	.bg4{font-size:29.9421px;}
	.bg5{fill-rule:evenodd;clip-rule:evenodd;fill:#070BAC;}
</style>
<g id="bg">
	<g id="Artboard" transform="translate(-541.000000, -268.000000)">
		<g id="card" transform="translate(541.000000, 268.000000)">
			<g id="bg">
				<path id="Fill-1" class="bg1" d="M506,630.8c0-7.4,4.5-13.8,11-16.4v-50.6c-6.4-2.7-11-9-11-16.4c0-7.4,4.5-13.8,11-16.4v-50.6
					c-6.4-2.7-11-9-11-16.4c0-7.4,4.5-13.8,11-16.4v-50.6c-6.4-2.7-11-9-11-16.4c0-7.4,4.5-13.8,11-16.4v-50.6
					c-6.4-2.7-11-9-11-16.4c0-7.4,4.5-13.8,11-16.4V230c-6.4-2.7-11-9-11-16.4c0-7.4,4.5-13.8,11-16.4v-50.6c-6.4-2.7-11-9-11-16.4
					c0-7.4,4.5-13.8,11-16.4V63.1c-6.4-2.7-11-9-11-16.4c0-7.4,4.5-13.8,11-16.4V0h-32.2c-1.1,8.8-8.5,15.6-17.6,15.6
					c-9.1,0-16.5-6.8-17.6-15.6h-48.2c-1.1,8.8-8.6,15.6-17.6,15.6c-9.1,0-16.5-6.8-17.6-15.6h-48.2c-1.1,8.8-8.5,15.6-17.6,15.6
					c-9.1,0-16.5-6.8-17.6-15.6h-48.2c-1.1,8.8-8.5,15.6-17.6,15.6c-9.1,0-16.5-6.8-17.6-15.6H151c-1.1,8.8-8.6,15.6-17.6,15.6
					c-9.1,0-16.5-6.8-17.6-15.6H67.6C66.5,8.8,59,15.6,50,15.6c-9.1,0-16.5-6.8-17.6-15.6H0v29.7c7.3,2.2,12.6,9,12.6,17
					S7.3,61.5,0,63.7v49.5c7.3,2.2,12.6,9,12.6,17c0,8-5.3,14.8-12.6,17v49.5c7.3,2.2,12.6,9,12.6,17s-5.3,14.8-12.6,17V280
					c7.3,2.2,12.6,9,12.6,17c0,8-5.3,14.8-12.6,17v49.5c7.3,2.2,12.6,9,12.6,17c0,8-5.3,14.8-12.6,17v49.5c7.3,2.2,12.6,9,12.6,17
					c0,8-5.3,14.8-12.6,17v49.5c7.3,2.2,12.6,9,12.6,17c0,8-5.3,14.8-12.6,17v49.5c7.3,2.2,12.6,9,12.6,17c0,8-5.3,14.8-12.6,17
					v29.9h32.6c1.7-8,8.8-14,17.4-14c8.5,0,15.6,6,17.4,14h48.7c1.7-8,8.8-14,17.4-14s15.6,6,17.4,14h48.7c1.7-8,8.8-14,17.4-14
					c8.5,0,15.6,6,17.4,14H283c1.7-8,8.8-14,17.4-14c8.5,0,15.6,6,17.4,14h48.7c1.7-8,8.8-14,17.4-14c8.5,0,15.6,6,17.4,14h48.7
					c1.7-8,8.8-14,17.4-14s15.6,6,17.4,14H517v-30.5C510.6,644.6,506,638.2,506,630.8"/>
				<text transform="matrix(1 0 0 1 39.5234 623.7938)" class="bg2 bg3 bg4">Under Construction</text>
			</g>
			<rect id="Mask" x="37.4" y="47.9" class="bg5" width="442.3" height="517"/>
		</g>
	</g>
</g>
</svg>
