<?xml version="1.0" encoding="utf-8"?>
<!-- Generator: Adobe Illustrator 24.0.1, SVG Export Plug-In . SVG Version: 6.00 Build 0)  -->
<svg version="1.1" id="body_1_" xmlns="http://www.w3.org/2000/svg" xmlns:xlink="http://www.w3.org/1999/xlink" x="0px" y="0px"
	 viewBox="0 0 518.1 921.4" style="enable-background:new 0 0 518.1 921.4;" xml:space="preserve">
<style type="text/css">
	.st0{fill:url(#SVGID_1_);}
	.st1{fill:#F3EFEF;}
	.st2{fill:#FFFFFF;}
</style>
<g id="body">
	
		<linearGradient id="SVGID_1_" gradientUnits="userSpaceOnUse" x1="258.3674" y1="249.44" x2="258.9674" y2="4.91" gradientTransform="matrix(1 0 0 -1 0 923.8)">
		<stop  offset="0" style="stop-color:#5E60EE"/>
		<stop  offset="1" style="stop-color:#8D8FF7"/>
	</linearGradient>
	<path class="st0" d="M514.9,915.8c-0.1-0.1-0.3-0.2-0.4-0.2c-13.2-8.2-26.4-16.3-39.5-24.4l-58.4-35.9l-33.9-20.8
		c-0.6-0.5-1.3-0.7-2-0.7l0,0c-1-1.4-2.6-2-3.9-3l0,0c-7.6-4.7-15.3-9.3-22.9-14l-22.7-13.9c-5.4-3.3-10.9-6.7-16.3-10
		c-0.9-0.5-1.3-1.1-1-2.1c0.1-0.4,0.1-0.8,0-1.2l0.1-1.3c0.2-0.4,0.2-0.8,0.2-1.2c0.8-3.9,1.2-7.9,1.6-11.8c0.5-2.8,0.8-5.7,1.1-8.5
		c1.5-11.2,3.1-22.4,4.7-33.6c1.1-8,2.2-16,3.3-23.9c0.4-2.6,0.6-5.2,1-7.8l0.1-0.8l0,0c0.5-2.9,1-5.8,1.4-8.7
		c0.3-1.1,0.4-2.2,0.3-3.3c0-1.1-0.9-2-2-2.1c-1-0.3-2.1,0.2-2.6,1.2c-0.2,0.4-0.4,0.9-0.5,1.3c-0.1,0.7-0.5,0.9-1.2,0.9
		c-4.7,0.2-9.3,1.3-14,0.5c-0.7-0.1-1.4-0.1-2.1-0.1l0,0c-0.5-0.3-1-0.5-1.6-0.4c-4.6-0.4-9.1-1.9-13-4.4c-3.6-2.3-7.4-4.4-11.1-6.6
		c-4.2-2.6-8.7-4.7-13.4-6.3c-3-0.9-6.1-1.7-9.2-0.8c-6.9,1.9-13.8,3.9-20.3,7c-6.9,3.3-13.5,7.3-20.3,10.8c-3.9,2-7.8,3.8-11.9,5.3
		c-0.5-0.6-0.8-1.3-0.8-2.1c-1.1-6-2.2-12-3.4-18c-0.1-0.7-0.7-1.3-1.5-1.3c-0.7,0-1.5,0-1.6,0.7c-0.2,1.9-1.4,3.4-0.9,5.5
		c2.3,11.8,4.4,23.7,6.6,35.5c0.4,3,1,6,1.8,8.9c0.1,0.5,0.1,0.9,0.1,1.3c-0.1,0.5,0,1.1,0.4,1.5l0,0c0.4,2.8,0.9,5.5,1.4,8.3
		c1.5,8.2,2.9,16.3,4.5,24.5c0.6,3.1,1,6.3,1.8,9.3c0,0.2,0.1,0.3,0.1,0.5l0.1,0.5c0,0.5-0.1,1,0.3,1.4l0,0c0.8,5.6,1.9,11.2,3,16.7
		c0,0.7-0.2,1.4,0.4,2l0,0c-0.2,0.8,0,1.7,0.4,2.5l0,0c0.2,2.1,0.5,4.1,1.1,6.2l0,0c0.3,1.2-0.4,2.4-1.6,2.8c-2.5,1.2-4.9,2.6-7.4,4
		c-2.6,1.3-5,2.7-7.4,4.3c-0.7,0.1-1.4,0.4-1.9,0.9l0,0c-2.6,1.4-5.2,2.7-7.6,4.3l0,0c-2.4,0.7-4.4,2.2-6.6,3.3
		c-13.5,7.3-27,14.7-40.4,22.1l-5.3,2.7l0,0l-32.2,17.6c-9.6,5.2-19.2,10.4-28.8,15.7c-13.1,7.2-26.2,14.3-39.3,21.5
		c-10.5,5.8-21,11.5-31.5,17.2c-2.6,1.4-5.1,3-8.2,2.9v3.4h517.8C518.2,918.8,517.9,916.6,514.9,915.8z M252.2,716.5L252.2,716.5
		L252.2,716.5z M223.4,789.1h-0.2H223.4C223.4,789,223.4,789,223.4,789.1z M236.1,745.9L236.1,745.9L236.1,745.9
		C236.1,745.9,236.1,745.9,236.1,745.9L236.1,745.9z M254.5,788.3L254.5,788.3L254.5,788.3L254.5,788.3z M303.8,768.5
		c0.4,0.1,0.8,0.4,1,0.7C304.5,769,304.2,768.8,303.8,768.5z M294.8,770.3c0,0-0.1-0.1-0.3-0.1l0.2-0.1l0,0
		C294.8,770.2,294.8,770.2,294.8,770.3L294.8,770.3z M283.7,785.3L283.7,785.3L283.7,785.3z M294.9,770.4c0-0.1,0-0.1,0-0.2
		c0,0.1,0.1,0.1,0.2,0.2L294.9,770.4z M301.1,716.4c0-0.1,0-0.2,0-0.3C301.2,716.2,301.2,716.3,301.1,716.4L301.1,716.4z
		 M307.9,720.1L307.9,720.1L307.9,720.1z M234.3,781.1c0.1,0,0.2,0,0.3,0l-0.3,0.2L234.3,781.1z M229.2,727.1L229.2,727.1z
		 M233.2,742.1h0.2C233.3,742.1,233.3,742.1,233.2,742.1L233.2,742.1z M213.8,721.3l0.3,0.2h-0.4l0,0
		C213.8,721.4,213.8,721.4,213.8,721.3L213.8,721.3z M314.4,778.3L314.4,778.3z M318.3,696.4L318.3,696.4L318.3,696.4L318.3,696.4z
		 M276.9,706.8l-0.3-0.5C276.8,706.3,276.9,706.6,276.9,706.8z M318.4,691.6h-0.1c0-0.1,0-0.1,0-0.2
		C318.3,691.5,318.3,691.6,318.4,691.6L318.4,691.6z M292.1,697l0,0.1c0,0-0.1-0.1-0.1-0.1L292.1,697z M287.2,702
		c-0.1-0.3-0.2-0.5-0.3-0.7c0.1,0,0.2,0.1,0.3,0.1C287.4,701.5,287.3,701.8,287.2,702L287.2,702z M275.6,704.6
		c-0.2-0.3-0.3-0.5-0.4-0.6c0.1,0,0.1,0,0.1,0.1C275.5,704.2,275.6,704.4,275.6,704.6L275.6,704.6z M267.2,705.6L267.2,705.6
		L267.2,705.6z M217.2,790L217.2,790L217.2,790L217.2,790L217.2,790z"/>
	<path class="st1" d="M145.3,840.3c3.8,5.2,9.3,8.9,15.6,10.3c3.2,0.8,6.3-0.2,9.4-1c2.4-0.6,4.8-1.3,7.2-1.8
		c3.6-0.8,7.4-0.1,10.5,1.9c2.1,1.3,4.1,2.8,5.9,4.4c5.4,4.3,11.7,6.5,18.4,7.6c4.1,0.7,8.1-0.3,11.9-1.8s7.6-3.4,11.3-5.2
		c1.4-0.7,2.9-1.4,4.3-2.1c6.7-3.5,13.3-3.1,20,0.2c3.2,1.6,6.1,3.7,9.3,5.5c4.4,2.6,9.3,4.2,14.4,4.7c3.5,0.3,6.7-1,9.9-2.5
		c5-2.3,9.5-5.5,14-8.7c3.7-2.6,7-5.5,10.9-7.8c4-2.3,8.6-3.6,13.2-3.8c4.9-0.4,9.8,0,14.6,1.1c7.9,1.8,14.8-0.3,21.5-4.2
		c2.8-1.5,5.5-3.3,8.1-5.2c0.5-0.4,1.1-0.7,1.3-1.4c1.3,1,3,1.5,3.9,3c-2.3,2.3-4.9,4.4-7.7,6c-4.7,3.2-9.9,5.5-15.4,6.9
		c-2.8,0.6-5.7,0.6-8.6,0.2c-4.4-0.5-8.8-1.2-13.3-1.5c-7.3-0.6-14.6,1.8-20.1,6.7c-5,4.2-10.4,7.9-16.1,11.2
		c-3.9,2.3-8.1,3.9-12.5,4.7c-2.8,0.4-5.7,0.3-8.5-0.5c-5.2-1.2-10.2-3.3-14.6-6.3c-3-2-6.1-3.7-9.5-5c-3.2-1.3-6.8-1.2-10,0.2
		c-4.5,2-9,4.2-13.4,6.3c-4.5,2.3-9.3,3.8-14.3,4.4c-3.6,0.4-7-0.5-10.3-1.3c-6.5-1.6-12.4-4.7-17.4-9.1c-0.6-0.5-1.3-1-1.9-1.4
		c-2.9-2.5-7-3.2-10.6-1.9c-2.3,0.7-4.6,1.2-6.9,1.8c-6.6,1.9-12.8,0.6-18.5-3c-3.2-2-6.1-4.4-8.6-7.2c-0.6-0.7-1.1-1.6-2.2-1.6
		L145.3,840.3z"/>
	<g id="dots">
		<circle class="st2" cx="164" cy="842" r="3"/>
		<circle class="st2" cx="176.7" cy="868.7" r="3"/>
		<circle class="st2" cx="213.9" cy="854.3" r="3"/>
		<circle class="st2" cx="248.7" cy="873.4" r="3"/>
		<circle class="st2" cx="283.1" cy="852.5" r="3"/>
		<circle class="st2" cx="330.6" cy="865.5" r="3"/>
		<circle class="st2" cx="351.3" cy="829.4" r="3"/>
		<circle class="st2" cx="389" cy="848.9" r="3"/>
	</g>
</g>
</svg>
