<?xml version="1.0" encoding="utf-8"?>
<!-- Generator: Adobe Illustrator 24.0.1, SVG Export Plug-In . SVG Version: 6.00 Build 0)  -->
<svg version="1.1" id="body_1_" xmlns="http://www.w3.org/2000/svg" xmlns:xlink="http://www.w3.org/1999/xlink" x="0px" y="0px"
	 viewBox="0 0 517 677.7" style="enable-background:new 0 0 517 677.7;" xml:space="preserve">
<style type="text/css">
	.body1{fill:url(#SVGID_1_);}
	.body2{fill:#F3EFEF;}
	.body3{fill:#FFFFFF;}
</style>
<g id="body">
	<path class="body1" d="M477.2,560.4c-0.1,0-0.2-0.1-0.3-0.2c-11.2-6.9-22.4-13.8-33.6-20.7c-16.5-10.2-33.1-20.3-49.6-30.5
		c-9.6-5.9-19.2-11.8-28.8-17.7c-0.5-0.3-1-0.7-1.7-0.6c0,0,0,0,0,0c0,0,0,0,0,0c-0.8-1.2-2.2-1.7-3.3-2.5c0,0,0,0,0,0c0,0,0,0,0,0
		c-6.5-4-13-7.9-19.4-11.9c-6.4-3.9-12.8-7.9-19.3-11.8c-4.6-2.8-9.2-5.7-13.9-8.5c-0.7-0.4-1.1-0.9-0.8-1.8c0.1-0.3,0-0.7,0-1
		c0-0.4,0-0.8,0.1-1.1c0.2-0.3,0.2-0.7,0.2-1c0.7-3.3,1-6.7,1.4-10.1c0.4-2.4,0.6-4.8,1-7.2c1.3-9.5,2.6-19.1,4-28.6
		c0.9-6.8,1.9-13.6,2.8-20.3c0.3-2.2,0.5-4.4,0.8-6.6c0-0.2,0.1-0.5,0.1-0.7c0,0,0,0,0,0c0.4-2.5,0.8-4.9,1.2-7.4
		c0.1-0.9,0.4-1.9,0.3-2.8c-0.2-1-0.6-1.6-1.7-1.8c-1-0.1-1.8,0.1-2.2,1c-0.2,0.4-0.3,0.8-0.4,1.1c-0.1,0.6-0.5,0.7-1,0.8
		c-4,0.2-7.9,1.1-11.9,0.4c-0.6-0.1-1.2,0-1.8-0.1c0,0,0,0,0,0l0,0h0l0,0v0c0,0,0,0,0,0c-0.4-0.3-0.9-0.3-1.3-0.4
		c-3.9-0.5-7.7-1.5-11.1-3.7c-3.1-2-6.3-3.7-9.5-5.6c-3.6-2.1-7.3-4.1-11.4-5.3c-2.6-0.8-5.2-1.4-7.8-0.7
		c-5.9,1.6-11.8,3.3-17.3,5.9c-5.9,2.8-11.5,6.2-17.3,9.1c-3.3,1.7-6.7,3.3-10.2,4.5c-0.6-0.5-0.5-1.2-0.7-1.8
		c-1-5.1-1.9-10.2-2.9-15.4c-0.1-0.7-0.6-1-1.3-1.1c-0.6,0-1.3,0-1.4,0.6c-0.2,1.6-1.1,2.9-0.8,4.7c1.9,10,3.7,20.1,5.6,30.2
		c0.5,2.5,0.7,5.1,1.6,7.5c0,0.4,0.1,0.8,0.1,1.2c-0.1,0.5-0.1,0.9,0.3,1.3c0,0,0,0,0,0c0.4,2.3,0.7,4.7,1.1,7
		c1.3,6.9,2.5,13.9,3.8,20.8c0.5,2.7,0.9,5.3,1.5,7.9c0,0.1,0.1,0.3,0.1,0.4c0,0.1,0,0.3,0.1,0.4c0,0.4-0.1,0.9,0.3,1.2c0,0,0,0,0,0
		c0,0,0,0,0,0l0,0c0,0,0,0,0,0c0.7,4.8,1.6,9.5,2.5,14.2c0,0.6-0.1,1.2,0.4,1.7l0,0c0,0.7-0.2,1.5,0.4,2.1c0,0,0,0,0,0
		c0.1,1.8,0.5,3.5,0.9,5.2h0c0.2,1.2-0.3,1.9-1.3,2.4c-2.1,1.1-4.2,2.2-6.2,3.4c-2.1,1.2-4.3,2.2-6.3,3.6c-0.6,0.1-1.2,0.4-1.6,0.8
		c0,0,0,0,0,0c-2.2,1.2-4.5,2.3-6.5,3.7l0,0c-2.1,0.6-3.7,1.8-5.6,2.8c-11.5,6.2-22.9,12.5-34.4,18.8c-1.5,0.8-3,1.6-4.5,2.4
		c0,0,0,0,0,0c-9.1,5-18.2,10-27.3,15c-8.2,4.5-16.3,8.9-24.5,13.3c-11.1,6.1-22.3,12.2-33.4,18.3c-8.9,4.9-17.9,9.8-26.8,14.6
		c-2.2,1.2-4.3,2.5-7,2.5c0,1,0,1.9,0,2.9c146.7,0,293.4,0,440.2,0C480,563,479.7,561.1,477.2,560.4z M224.1,453.4L224.1,453.4
		C224.1,453.4,224.1,453.4,224.1,453.4L224.1,453.4z M253.9,391C253.9,391,253.9,391,253.9,391C253.9,391,253.9,391,253.9,391
		C253.9,391,253.9,391,253.9,391z M229.4,452.7c-0.1,0-0.1,0-0.2,0c0.1,0,0.1-0.1,0.2-0.1C229.4,452.6,229.4,452.7,229.4,452.7z
		 M240.2,416C240.2,416,240.1,416,240.2,416C240.1,416,240.2,415.9,240.2,416C240.2,415.9,240.2,416,240.2,416z M255.9,452
		C255.9,452,255.9,452,255.9,452C255.9,452,255.9,452,255.9,452C255.9,452,255.9,452,255.9,452z M297.8,435.2
		c0.3,0.1,0.6,0.3,0.8,0.6C298.4,435.7,298.1,435.5,297.8,435.2z M290.1,436.7c0,0-0.1-0.1-0.3-0.1c0.1,0,0.1-0.1,0.2-0.1
		c0,0,0,0,0,0C290.1,436.6,290.1,436.7,290.1,436.7z M280.7,449.5C280.7,449.5,280.7,449.5,280.7,449.5
		C280.6,449.5,280.6,449.5,280.7,449.5C280.6,449.5,280.7,449.5,280.7,449.5z M290.2,436.9c0-0.1,0-0.1,0-0.2c0,0.1,0.1,0.1,0.1,0.2
		C290.2,436.9,290.2,436.9,290.2,436.9z M295.5,390.9c0-0.1,0-0.1,0-0.2C295.5,390.7,295.5,390.8,295.5,390.9z M301.3,394.1
		C301.3,394.1,301.3,394,301.3,394.1C301.3,394,301.3,394,301.3,394.1C301.3,394.1,301.3,394.1,301.3,394.1z M238.7,445.9
		c0.1,0,0.2,0,0.2,0c-0.1,0.1-0.2,0.1-0.3,0.2C238.7,446,238.7,446,238.7,445.9z M234.3,400C234.3,400,234.3,400,234.3,400
		C234.3,400,234.3,400,234.3,400C234.3,400,234.3,400,234.3,400z M237.8,412.7c0.1,0,0.1,0,0.2,0
		C237.9,412.8,237.8,412.8,237.8,412.7z M221.3,395.1c0.1,0.1,0.2,0.1,0.3,0.2c-0.1,0-0.2,0-0.3,0c0,0,0,0,0,0
		C221.3,395.2,221.3,395.2,221.3,395.1z M306.8,443.5C306.8,443.5,306.8,443.5,306.8,443.5C306.8,443.5,306.8,443.5,306.8,443.5z
		 M310.1,373.9C310.1,373.9,310.1,373.9,310.1,373.9C310.1,373.9,310.1,373.9,310.1,373.9C310.1,373.9,310.1,373.9,310.1,373.9
		C310.1,373.9,310.1,373.9,310.1,373.9C310.1,373.9,310.1,373.9,310.1,373.9C310.1,373.9,310.1,373.9,310.1,373.9z M274.9,382.7
		c-0.1-0.2-0.2-0.3-0.3-0.5C274.8,382.4,274.9,382.5,274.9,382.7z M310.1,369.9C310.1,369.9,310.1,369.9,310.1,369.9
		c-0.1-0.1-0.1-0.1,0-0.2C310.1,369.8,310.1,369.8,310.1,369.9z M287.9,374.4c0,0,0,0.1,0,0.1c0,0,0-0.1-0.1-0.1
		C287.8,374.4,287.8,374.4,287.9,374.4z M283.7,378.6c-0.1-0.3-0.2-0.5-0.3-0.6c0.1,0,0.2,0.1,0.2,0.1
		C283.8,378.3,283.7,378.5,283.7,378.6z M273.7,380.9c-0.1-0.2-0.2-0.4-0.3-0.5c0,0,0.1,0,0.1,0.1
		C273.7,380.6,273.8,380.7,273.7,380.9z M266.6,381.7C266.6,381.7,266.6,381.7,266.6,381.7C266.6,381.7,266.6,381.7,266.6,381.7
		C266.6,381.7,266.6,381.7,266.6,381.7z M224.1,453.4C224.1,453.4,224.1,453.4,224.1,453.4C224.1,453.4,224.1,453.4,224.1,453.4
		C224.1,453.4,224.1,453.4,224.1,453.4L224.1,453.4C224.1,453.4,224.1,453.4,224.1,453.4C224.1,453.4,224.1,453.4,224.1,453.4
		C224.1,453.4,224.1,453.4,224.1,453.4C224.1,453.4,224.1,453.4,224.1,453.4C224.1,453.4,224.1,453.4,224.1,453.4
		C224.1,453.4,224.1,453.4,224.1,453.4C224.1,453.4,224.1,453.4,224.1,453.4z"/>
	<path class="body2" d="M163,496.3c3.4,4.5,7.8,7.5,13.3,8.8c2.7,0.6,5.4-0.2,8-0.9c2-0.5,4-1.1,6.1-1.5c3.3-0.7,6.2,0,9,1.7
		c1.8,1.1,3.4,2.4,5.1,3.8c4.6,3.7,9.9,5.5,15.6,6.5c3.5,0.6,6.9-0.2,10.1-1.5c3.3-1.3,6.4-2.9,9.6-4.4c1.2-0.6,2.5-1.2,3.7-1.8
		c5.7-3,11.3-2.6,17,0.2c2.7,1.4,5.2,3.2,7.9,4.7c3.8,2.1,7.9,3.6,12.3,4c2.9,0.2,5.7-0.9,8.4-2.1c4.3-2,8.1-4.7,11.9-7.4
		c3.1-2.2,6-4.7,9.2-6.7c3.5-2.1,7.3-2.9,11.2-3.2c4.1-0.3,8.3,0,12.3,0.9c6.7,1.5,12.6-0.2,18.3-3.6c2.3-1.4,4.7-2.7,6.9-4.4
		c0.4-0.3,0.9-0.6,1.1-1.2c1.1,0.8,2.5,1.3,3.3,2.5c-1.9,2.1-4.2,3.6-6.6,5.1c-4.1,2.6-8.4,4.8-13.1,5.9c-2.4,0.6-4.8,0.5-7.3,0.2
		c-3.8-0.5-7.5-1.1-11.3-1.3c-6.4-0.4-12.1,1.5-17.1,5.7c-4.3,3.6-8.9,6.7-13.7,9.5c-3.3,1.9-6.8,3.3-10.6,4
		c-2.5,0.5-4.9,0.2-7.2-0.4c-4.5-1-8.6-2.8-12.5-5.3c-2.5-1.7-5.2-3.2-8.1-4.3c-2.9-1-5.7-1.1-8.5,0.1c-3.8,1.7-7.6,3.5-11.4,5.3
		c-3.9,1.8-7.9,3.3-12.2,3.7c-3,0.3-5.9-0.4-8.8-1.1c-5.5-1.5-10.5-3.9-14.8-7.7c-0.5-0.4-1.1-0.8-1.6-1.2c-2.7-2.1-5.7-2.7-9-1.7
		c-1.9,0.6-3.9,1-5.9,1.6c-5.7,1.6-10.8,0.5-15.8-2.5c-2.7-1.7-5.2-3.7-7.3-6.1c-0.5-0.6-1-1.4-1.9-1.4
		C160,497.8,161.5,497,163,496.3z"/>
	<g id="dots">
		<circle class="body3" cx="178.9" cy="497.7" r="2.6"/>
		<circle class="body3" cx="189.7" cy="520.4" r="2.6"/>
		<circle class="body3" cx="221.4" cy="508.1" r="2.6"/>
		<circle class="body3" cx="250.9" cy="524.4" r="2.6"/>
		<circle class="body3" cx="280.2" cy="506.6" r="2.6"/>
		<circle class="body3" cx="320.5" cy="517.6" r="2.6"/>
		<circle class="body3" cx="338.2" cy="487" r="2.6"/>
		<circle class="body3" cx="370.2" cy="503.6" r="2.6"/>
	</g>
</g>
</svg>
