<?xml version="1.0" encoding="utf-8"?>
<!-- Generator: Adobe Illustrator 24.0.1, SVG Export Plug-In . SVG Version: 6.00 Build 0)  -->
<svg version="1.1" id="feather_1_" xmlns="http://www.w3.org/2000/svg" xmlns:xlink="http://www.w3.org/1999/xlink" x="0px" y="0px"
	 viewBox="0 0 517 677.7" style="enable-background:new 0 0 517 677.7;" xml:space="preserve">
<style type="text/css">
	.feather1{opacity:0.5;}
	.feather2{fill:#FF92C6;}
	.feather3{fill:#3EC0F0;}
</style>
<g id="feather">
	<g className="feather1">
		<path className="feather2" d="M257.6,226.7c-1.9-6.9,11.5-8.1,13.6-14.9"/>
		<path className="feather2" d="M256.7,227.4c3.5-5.7,11.9-2,16.2-6.7"/>
		<path className="feather2" d="M258,226.6c0.3-4.8,8.8-6.6,12.8-7.7"/>
		<path className="feather2" d="M256.2,225.9c4.6-1.7,6.3-1.3,10.3,0.4c3,1.1,5,3.8,8.6,2.7"/>
		<path className="feather2" d="M258.4,226.5c4.5,2.3,8.8,1.9,13.7,1.4"/>
		<path className="feather2" d="M256.8,225.4c-8,3.7-9.9-6.4-17.2-7.2"/>
		<path className="feather2" d="M255.3,227c-5-6.9-12.6-2.1-19.3-1.9"/>
		<path className="feather2" d="M254.6,225.6c-5.2,3.7-10.8-3.8-16.7-2.6"/>
		<path className="feather2" d="M254.6,227.2c-6.3-3-11.4,1.1-15.2,6"/>
		<path className="feather2" d="M254.7,227.5c-3.9-1.3-9.8-0.1-10.3,5.1"/>
		<path className="feather2" d="M254.4,226c-6.5-0.6-8-8-14.2-9.1"/>
		<path className="feather2" d="M254.8,227.9c-5.8-2.7-11.9,0.9-13.8,6.8"/>
		<path className="feather2" d="M256.3,226.3c3.5-4.4,11,0.2,16.4-1.7"/>
		<path className="feather2" d="M256.6,227c3.5-4.4,11.9,1.9,16.1,1.6"/>
		<path className="feather2" d="M257.4,227.2c1.1-7.3,11.9-5.5,12.5-14.7"/>
		<path className="feather2" d="M256.5,226.6c-6.6,0.2-10.3-6.6-16.6-6.5"/>
		<path className="feather2" d="M254.2,227.3c-7.5-6.2-11.8-3.1-20.2-0.9"/>
		<path className="feather2" d="M254.7,225.9c-8.8-2.3-12.4-2.6-19.9,3"/>
		<path className="feather2" d="M250.9,226.5c-5.1-0.6-10.3,0.4-14.8,3.2"/>
		<path className="feather2" d="M258.6,226.1c2.2-12.3,13.1-3.9,16.8-13.1"/>
		<path className="feather2" d="M257.1,224.9c4.1-2.3,16.1,0.4,17.7-5.5"/>
		<path className="feather2" d="M270.1,171.3C270,171.3,270,171.2,270.1,171.3c-0.1-0.1-0.1-0.1-0.1-0.2c2.4-2.3,3.9-5.5,5-8.5v-0.1
			c-0.6-1.9-1.2-3.8-1.9-5.7c-1.7,1.2-3.6,2-5.7,2.3c-0.1,0-0.1-0.1-0.1-0.2c0.8-0.8,1.5-1.8,2-2.7c0.7-1.1,1.3-2.4,1.9-3.7
			c0.1-0.1,0.1-0.3,0.2-0.4c-0.5-1.5-1.1-2.9-1.8-4.3c-1.5,0.8-3.3,1.1-5,0.9c-0.1,0-0.1-0.1-0.1-0.1l0,0c1-1.9,1.8-3.7,2.2-5.7
			c0.1-0.3,0.2-0.6,0.2-0.9c-4.2-9-8.9-17.8-14.1-26.4c-1.8,0.6-3.7,0.9-5.6,0.9c-0.1,0-0.1-0.1-0.1-0.1c0.8-1.9,1.8-3.8,2.7-5.7
			c-1.4-2.3-2.8-4.6-4.2-6.9c-1.5,1.8-3.3,3.4-5.2,4.6c-0.1,0-0.1,0-0.1,0v-0.1c1.1-1.5,1.9-3.1,2.5-4.9c0.4-1,0.5-2,0.7-3.1L243,99
			c-2.5-4-5-8-7.7-11.8c-0.5,1.8-1.3,3.4-2.4,4.9c0,0.1-0.1,0.1-0.1,0.1s-0.1,0-0.1-0.1c-1.3-6.6-4.2-12.8-8.5-18
			c-2.2-2.7-4.8-5-7.5-6.9c-1.7-1.1-6.7-3.4-6.5-5.8c-0.5,6.9-1.8,13.6-2.7,20.4c0.5,0.5,1.1,1.1,1.5,1.7c2.1,2.5,4.3,5.2,5.2,8.4
			c0,0.1,0,0.1-0.1,0.1h-0.1c-2.2-1.9-4.7-3.5-7.3-4.9c-0.8,6-1.1,12-1.2,18.1c3.4,1.9,7.2,3.8,8,8c0,0.1-0.1,0.2-0.1,0.1
			c-2.6-1.8-5.1-3.4-7.9-5c0,4,0.2,8,0.4,11.9c0.7,9.9,2,19.8,3.6,29.6c1.1,0.8,2.3,1.7,3.4,2.6c2.5,1.9,4.8,4.2,6.9,6.5
			c0,0,0,0.1,0,0.2h-0.1c-1.9-1.1-4-2.4-6-3.4c-1.1-0.6-2.2-1.1-3.4-1.4c1.3,7.7,2.8,15.4,4.2,23.1c0.2,1.1,0.4,2.1,0.6,3.2
			c1.4,0.8,2.9,1.5,4.3,2.3c5,2.7,11,5.4,13.6,10.7c0,0.1,0,0.1,0,0.1H233c-4.8-0.9-9.7-1.2-14.6-1.1c3.2,9.1,8.2,17.4,16.7,22.6
			c6.6,4,14.3,7.5,21.6,12.8l12.6-16.1c8.2-10.3,10.8-21.5,9.4-33.9c-1.8,0.4-3.6,0.6-5.5,0.4c-0.1,0-0.1-0.1-0.1-0.1v-0.1
			c1.9-1.4,3.4-3.1,4.9-5c-0.2-0.8-0.3-1.5-0.4-2.3s-0.4-1.8-0.6-2.7C275,170.1,272.6,171.2,270.1,171.3z"/>
		<path className="feather2" d="M256.6,247.8c1.8-13.8-2.5-29.8-5.3-43.2c-4.2-20-8.2-40.9-13.4-60.5c-3.1-11.5-5.6-23.2-9.6-34.4
			c-2.2-5.9-7.9-22.3-9.7-29.1"/>
		<path className="feather3" d="M269.6,230.8c2.3-6.8,14.1-0.4,19.6-4.9"/>
		<path className="feather3" d="M268.3,230.8c6.1-2.7,11.1,5,17.2,3.4"/>
		<path className="feather3" d="M269.9,230.9c2.9-3.8,11-0.6,14.9,0.7"/>
		<path className="feather3" d="M268.9,229.4c4.8,1.2,5.9,2.5,8.3,6c1.9,2.7,1.9,5.8,5.6,7.1"/>
		<path className="feather3" d="M270.3,231c2.5,4.4,6.2,6.5,10.6,8.8"/>
		<path className="feather3" d="M269.7,229.2c-8.8-1.4-4.7-10.8-10.3-15.5"/>
		<path className="feather3" d="M267.5,229.7c-0.3-8.5-9.4-8.8-14.9-12.3"/>
		<path className="feather3" d="M267.6,228.1c-6.5,0.2-6.9-9.1-12.5-11.4"/>
		<path className="feather3" d="M266.8,229.5c-3.5-6-10.1-5.4-16-3.4"/>
		<path className="feather3" d="M266.8,229.8c-2.5-3.3-8.1-5.6-11.5-1.5"/>
		<path className="feather3" d="M267.2,228.3c-5-4.1-2.2-11.1-6.7-15.5"/>
		<path className="feather3" d="M266.6,230.2c-3.3-5.5-10.3-5.9-15.3-2"/>
		<path className="feather3" d="M268.7,229.7c5.4-1.8,9,6.3,14.5,7.8"/>
		<path className="feather3" d="M268.5,230.4c5.4-1.8,8.8,8.1,12.5,10.3"/>
		<path className="feather3" d="M269.1,231c5-5.5,12.9,2,18.6-5.2"/>
		<path className="feather3" d="M268.6,230.1c-5.6-3.5-5-11.2-10.2-14.7"/>
		<path className="feather3" d="M266.5,229.3c-2.8-9.4-8-9.1-16.3-11.9"/>
		<path className="feather3" d="M267.5,228.5c-6-6.9-8.9-9-18.2-8.6"/>
		<path className="feather3" d="M264.1,226.9c-3.9-3.4-8.8-5.4-14.1-5.6"/>
		<path className="feather3" d="M270.7,230.8c8.7-9,13,4.1,21.3-1.5"/>
		<path className="feather3" d="M270.1,229c4.7,0.4,13.2,9.3,17.8,5.3"/>
		<path className="feather3" d="M310.8,191.7C310.7,191.7,310.7,191.6,310.8,191.7c-0.1-0.1-0.1-0.1,0-0.2c3.2-0.5,6.3-2.4,8.9-4.3l0.1-0.1
			c0.6-1.9,1.1-3.8,1.7-5.7c-2.1,0.1-4.2-0.4-6.1-1.3c-0.1,0,0-0.2,0-0.2c1.1-0.3,2.2-0.6,3.3-1.1c1.2-0.6,2.5-1.2,3.6-1.9l0.4-0.3
			c0.4-1.5,0.7-3,1-4.6c-1.7-0.2-3.3-0.9-4.6-2c0,0-0.1-0.1,0-0.2l0,0c1.9-1,3.5-2.1,5-3.5c0.3-0.2,0.4-0.4,0.7-0.6
			c1.5-9.8,2.5-19.7,2.9-29.7c-1.9-0.5-3.5-1.3-5.1-2.4c0,0-0.1-0.1,0-0.1l0,0c1.7-1.2,3.6-2.2,5.4-3.3c0.1-2.7,0.3-5.4,0.4-8
			c-2.2,0.6-4.5,1-6.9,1c-0.1,0-0.1-0.2,0-0.2c1.8-0.6,3.4-1.5,4.8-2.7c0.8-0.6,1.6-1.4,2.3-2.1l0.1-1.4c0.2-4.7,0.3-9.4,0.2-14.1
			c-1.4,1.1-3,2-4.7,2.7c-0.1,0-0.2,0-0.2-0.1c2.7-6.2,3.6-13,3-19.7c-0.4-3.4-1.1-6.7-2.4-9.9c-0.7-1.9-3.7-6.6-2.2-8.5
			c-4.3,5.4-9,10.3-13.7,15.5c0.2,0.7,0.3,1.5,0.4,2.2c0.4,3.2,0.7,6.7-0.4,9.8c0,0.1,0,0.1-0.1,0.1c-0.1,0-0.1,0-0.1-0.1
			c-0.8-2.8-1.9-5.6-3.4-8.1c-4,4.6-7.7,9.4-11.1,14.3c1.8,3.5,3.9,7.2,2.2,11.1c0,0.1-0.2,0.1-0.2,0c-1.1-2.9-2.4-5.7-3.8-8.5
			c-2.2,3.3-4.2,6.6-6.3,10.1c-5,8.6-9.4,17.6-13.4,26.6c0.5,1.3,1,2.7,1.4,4.1c1,3,1.6,6.1,2,9.3c0,0.1,0,0.1-0.1,0.1h-0.1
			c-1-2-1.9-4.2-3.1-6.2c-0.6-1.1-1.2-2.1-2-3.1c-3.2,7.2-6.2,14.3-9.3,21.5c-0.4,1-0.9,2-1.2,3c0.8,1.4,1.6,2.8,2.4,4.3
			c2.6,5,6.1,10.6,5.4,16.5c0,0.1-0.1,0.1-0.1,0.1s0,0-0.1,0c-3.5-3.4-7.3-6.5-11.5-9c-2.4,9.4-2.8,19.1,1.3,28.1
			c3.3,7,7.7,14.2,10.8,22.6l19.4-6.4c12.6-4,21-11.9,26.6-22.9c-1.8-0.6-3.4-1.5-4.9-2.7c0,0-0.1-0.1,0-0.2h0.1
			c2.3-0.1,4.6-0.6,6.8-1.4c0.3-0.7,0.6-1.4,0.9-2.1c0.3-0.7,0.6-1.7,1-2.6C315.4,193.3,313,193.1,310.8,191.7z"/>
		<path className="feather3" d="M257,247.7c9.1-10.4,14.5-26.2,19.6-38.8c7.7-18.9,15.9-38.5,22.5-57.8c3.8-11.2,8.3-22.4,11.1-34
			c1.5-6.1,5.8-22.9,8.1-29.6"/>
		<path className="feather2" d="M277.2,240.8c5.7-4.3,11.9,7.5,19,6.9"/>
		<path className="feather2" d="M276.2,240.1c6.5,1.1,6.5,10.3,12.4,12.5"/>
		<path className="feather2" d="M277.5,241c4.5-1.6,9.5,5.6,12,8.8"/>
		<path className="feather2" d="M277.5,239.2c3.3,3.7,3.6,5.3,3.5,9.6c0.1,3.3-1.6,6,0.7,9"/>
		<path className="feather2" d="M277.6,241.4c-0.4,5,1.5,8.8,3.9,13.2"/>
		<path className="feather2" d="M278.2,239.5c-6.5-6,2.1-11.6,0.1-18.6"/>
		<path className="feather2" d="M276.1,238.7c4.5-7.3-2.9-12.5-5.6-18.6"/>
		<path className="feather2" d="M277.1,237.5c-5.5-3.4-0.6-11.4-4-16.5"/>
		<path className="feather2" d="M275.7,238.1c0.4-7-5.4-10.2-11.3-11.8"/>
		<path className="feather2" d="M275.4,238.4c-0.3-4.1-3.6-9.1-8.7-7.6"/>
		<path className="feather2" d="M276.6,237.4c-1.9-6.2,4.3-10.4,3-16.5"/>
		<path className="feather2" d="M275.1,238.6c0.4-6.5-5.3-10.7-11.6-10.2"/>
		<path className="feather2" d="M277.1,239.5c5.5,1.5,4,10.3,7.8,14.5"/>
		<path className="feather2" d="M276.6,239.9c5.5,1.6,2.7,11.7,4.7,15.5"/>
		<path className="feather2" d="M276.7,240.7c7.3-1.8,9.6,8.8,18.3,6"/>
		<path className="feather2" d="M276.8,239.6c-2.7-6,2.2-12.1-0.3-17.8"/>
		<path className="feather2" d="M275.4,237.9c2.8-9.3-1.6-12.1-6.9-19"/>
		<path className="feather2" d="M276.8,237.8c-1.2-9-2.4-12.5-10.3-17.2"/>
		<path className="feather2" d="M274.8,234.5c-1.3-5-4.4-9.4-8.6-12.5"/>
		<path className="feather2" d="M278.3,241.5c12.2-2.7,8.6,10.6,18.5,10.6"/>
		<path className="feather2" d="M278.7,239.6c3.6,2.9,5.7,15,11.9,14.2"/>
		<path className="feather2" d="M333.3,231.2C333.3,231.1,333.4,231.1,333.3,231.2c3.1,1.2,6.6,1.4,9.9,1.3h0.1c1.6-1.2,3.1-2.6,4.6-3.9
			c-1.8-1.1-3.3-2.7-4.3-4.5c0-0.1,0.1-0.2,0.1-0.1c1.1,0.4,2.2,0.7,3.4,0.9c1.3,0.2,2.7,0.4,4.2,0.4h0.4c1.1-1.1,2.3-2.1,3.4-3.3
			c-1.3-1.1-2.2-2.6-2.7-4.2c0-0.1,0-0.1,0-0.1s0,0,0.1,0c2,0.2,4.2,0.2,6.2-0.1l0.9-0.2c6.7-7.3,13.1-15,19-23
			c-1.2-1.4-2.2-3.1-2.9-4.9c0-0.1,0-0.1,0.1-0.1l0,0c2.1,0,4.2,0.2,6.4,0.3c1.6-2.2,3.2-4.3,4.8-6.5c-2.2-0.7-4.3-1.8-6.2-3
			c0,0,0-0.1,0-0.2c0,0,0,0,0.1,0c1.8,0.4,3.6,0.6,5.5,0.4c1.1-0.1,2.1-0.3,3.1-0.5l0.8-1.1c2.7-3.8,5.4-7.6,8-11.6
			c-1.9,0.2-3.6,0-5.5-0.4c-0.1,0-0.1-0.1,0-0.2c5.7-3.7,10.3-8.8,13.4-14.7c1.6-3,2.7-6.3,3.5-9.6c0.4-1.9,0.6-7.5,2.9-8.3
			c-6.5,2.1-13.3,3.6-20,5.2c-0.3,0.7-0.6,1.3-1,2c-1.4,2.9-3.2,6-5.8,8c-0.1,0.1-0.2,0-0.2-0.1c1-2.7,1.5-5.7,1.7-8.6
			c-5.8,1.6-11.6,3.5-17.2,5.7c-0.4,3.9-0.8,8.1-4.3,10.4c-0.1,0-0.2,0-0.2-0.1c0.7-3,1.2-6.1,1.6-9.1c-3.6,1.5-7.3,3.2-10.8,4.9
			c-8.9,4.4-17.6,9.4-26.1,14.6c-0.3,1.4-0.6,2.7-1.1,4.2c-0.9,3-2,6-3.4,8.8c0,0-0.1,0.1-0.2,0v-0.1c0.4-2.3,0.7-4.5,0.9-6.9
			c0.1-1.2,0.1-2.5,0-3.7c-6.6,4.2-13.2,8.5-19.7,12.7c-0.9,0.6-1.9,1.2-2.7,1.9c-0.2,1.6-0.3,3.3-0.4,4.9
			c-0.7,5.6-0.8,12.2-4.7,16.7c0,0.1-0.1,0.1-0.2,0l0,0c-1-4.8-2.6-9.5-4.5-14c-7.2,6.5-13,14.2-14.5,24.1
			c-1.2,7.6-1.5,16.1-3.7,24.9l19.6,5.5c12.7,3.7,24,1.8,34.8-4.2c-1.1-1.5-1.9-3.2-2.6-5c0-0.1,0-0.1,0.1-0.1h0.1
			c2,1.1,4.2,2,6.5,2.6c0.6-0.4,1.3-0.9,1.9-1.3c0.6-0.4,1.5-1.1,2.2-1.6C336.2,235.3,334.3,233.5,333.3,231.2z"/>
		<path className="feather2" d="M257.4,247.8c13.4-3.5,26.6-13.7,37.9-21.3c16.9-11.5,34.7-23.1,50.9-35.5c9.5-7.2,19.4-14,28.1-22
			c4.6-4.2,17.6-15.7,23.3-20.1"/>
		<path className="feather3" d="M278,253.3c7.2-0.4,5.7,12.9,11.9,16.3"/>
		<path className="feather3" d="M277.5,252.2c4.9,4.6-0.4,12.1,3.4,17.2"/>
		<path className="feather3" d="M278.1,253.7c4.6,1.2,4.8,9.9,5,14.1"/>
		<path className="feather3" d="M279,252.2c0.7,4.9,0,6.5-2.4,10c-1.8,2.7-4.7,4.1-4.4,7.9"/>
		<path className="feather3" d="M278.1,254.1c-3.2,4-3.6,8.1-4.2,13.1"/>
		<path className="feather3" d="M279.5,252.9c-2-8.6,8.1-8.4,10.4-15.4"/>
		<path className="feather3" d="M278.3,251c7.7-3.5,4.6-12,5.7-18.5"/>
		<path className="feather3" d="M279.8,250.6c-2.7-5.9,5.8-9.8,5.8-15.9"/>
		<path className="feather3" d="M278.3,250.3c4.2-5.6,1.1-11.4-2.9-16.1"/>
		<path className="feather3" d="M277.8,250.3c2-3.5,2-9.6-2.9-11.1"/>
		<path className="feather3" d="M279.3,250.2c1.9-6.2,9.5-6.3,11.8-12.1"/>
		<path className="feather3" d="M277.5,250.3c3.8-5.1,1.6-11.9-4-14.9"/>
		<path className="feather3" d="M278.7,252.2c3.7,4.3-2.4,10.8-1.7,16.4"/>
		<path className="feather3" d="M278,252.2c3.6,4.3-4.2,11.2-4.8,15.5"/>
		<path className="feather3" d="M277.6,253c7,2.6,3,12.6,11.9,15.2"/>
		<path className="feather3" d="M278.3,252.2c1.1-6.5,8.5-8.8,9.6-14.9"/>
		<path className="feather3" d="M278.2,249.9c7.6-6.1,5.4-11,4.9-19.6"/>
		<path className="feather3" d="M279.4,250.6c4.1-8.2,5-11.7,1.1-20.2"/>
		<path className="feather3" d="M279.5,246.8c1.7-5,1.6-10.3-0.2-15.1"/>
		<path className="feather3" d="M278.4,254.5c11.7,4.6,1.2,13.5,9.5,19.1"/>
		<path className="feather3" d="M279.8,253.3c1.4,4.4-3.5,15.7,1.9,18.4"/>
		<path className="feather3" d="M329.9,276.6c0-0.1,0.1-0.1,0.2,0l0,0c1.8,2.7,4.6,4.9,7.3,6.6l0.1,0.1c2-0.2,4-0.4,5.9-0.7
			c-0.9-1.9-1.2-4.1-1.1-6.2c0-0.1,0.2-0.1,0.2,0c0.6,1,1.4,1.8,2.3,2.6c1,1,2.1,1.9,3.2,2.7l0.4,0.3c1.5-0.3,3.1-0.5,4.6-0.9
			c-0.4-1.7-0.4-3.4,0.1-5c0-0.1,0.1-0.1,0.1-0.1l0,0c1.6,1.3,3.4,2.5,5.2,3.4c0.3,0.2,0.5,0.3,0.9,0.4c9.6-2.4,19.2-5.2,28.6-8.6
			c-0.2-1.9-0.2-3.8,0.3-5.7c0-0.1,0.1-0.1,0.1-0.1l0,0c1.8,1.1,3.4,2.5,5.1,3.8c2.6-0.9,5-1.9,7.6-2.7c-1.4-1.9-2.7-3.8-3.5-6
			c0-0.1,0.1-0.2,0.2-0.1c1.2,1.4,2.7,2.6,4.2,3.4c0.9,0.5,1.9,1,2.8,1.3l1.3-0.4c4.4-1.6,8.8-3.4,13.1-5.2c-1.6-0.9-3.1-2-4.3-3.4
			c0-0.1,0-0.2,0.1-0.2c6.7,0.1,13.4-1.6,19.4-4.7c3-1.7,5.7-3.6,8.2-6c1.5-1.4,4.7-5.9,7.1-5.3c-6.6-1.9-13-4.4-19.5-6.8
			c-0.6,0.4-1.2,0.8-1.9,1.1c-2.8,1.6-6,3.2-9.3,3.4c-0.1,0-0.1,0-0.1-0.1v-0.1c2.3-1.8,4.4-3.9,6.2-6.2c-5.7-1.9-11.6-3.5-17.5-4.9
			c-2.6,2.9-5.1,6.3-9.4,6.2c-0.1,0-0.2-0.1-0.1-0.2c2.3-2.1,4.4-4.3,6.4-6.7c-3.9-0.8-7.8-1.4-11.7-1.9c-9.9-1.3-19.8-1.9-29.8-2.3
			c-1.1,1-2.1,1.9-3.2,2.8c-2.5,2-5,3.8-7.8,5.4c-0.1,0-0.1,0-0.1,0v-0.1c1.5-1.7,3.1-3.4,4.6-5.2c0.8-1,1.5-2,2-3.1
			c-7.9-0.2-15.7-0.3-23.4-0.4c-1.1,0-2.2,0-3.3,0c-1.1,1.2-2,2.6-3.1,3.8c-3.7,4.2-7.4,9.7-13.2,11.2c-0.1,0-0.1,0-0.1-0.1v-0.1
			c1.9-4.6,3.2-9.3,4-14.2c-9.6,1.3-18.8,4.6-25.5,11.9c-5.2,5.7-10.3,12.5-16.9,18.6l13.2,15.5c8.5,10.2,18.9,14.9,31.3,15.9
			c-0.1-1.9,0.2-3.7,0.6-5.5c0-0.1,0-0.1,0.1-0.1c0.1,0,0.1,0,0.1,0.1c1,2.1,2.3,4,3.9,5.7c0.8,0,1.6,0,2.3,0s1.8,0,2.7-0.1
			C330.2,281.5,329.4,279.2,329.9,276.6z"/>
		<path className="feather3" d="M257.6,248.1c13.2,4.5,29.7,3.4,43.3,3.4c20.4-0.1,41.7,0.1,62-1.1c11.9-0.7,23.9-0.8,35.6-2.7
			c6.2-1,23.4-3.3,30.5-3.7"/>
		<path className="feather2" d="M271.7,264.2c6.2,3.6-2.5,13.9,0.9,20.2"/>
		<path className="feather2" d="M271.9,263.1c1.4,6.5-7.1,9.9-6.8,16.2"/>
		<path className="feather2" d="M271.4,264.6c3.2,3.6-1.6,10.9-3.6,14.5"/>
		<path className="feather2" d="M273.2,263.9c-2.1,4.4-3.5,5.3-7.5,7c-2.9,1.3-6.2,0.8-8,4.1"/>
		<path className="feather2" d="M271.3,264.8c-4.9,1.6-7.6,4.8-10.7,8.6"/>
		<path className="feather2" d="M273.2,264.7c3.1-8.2,11.5-2.5,17.2-7"/>
		<path className="feather2" d="M273.1,262.5c8.4,1.4,10.4-7.4,15-12.2"/>
		<path className="feather2" d="M274.6,262.9c1.1-6.4,10.3-4.9,13.7-9.9"/>
		<path className="feather2" d="M273.6,261.8c6.6-2.3,7.3-8.8,6.5-14.9"/>
		<path className="feather2" d="M273.2,261.7c3.7-1.8,7.1-6.8,3.7-11"/>
		<path className="feather2" d="M274.5,262.4c5-4.1,11.3,0.1,16.5-3.5"/>
		<path className="feather2" d="M272.9,261.4c6.1-2.1,7.9-8.9,5-14.6"/>
		<path className="feather2" d="M272.9,263.6c0.6,5.7-8,7.6-10.5,12.6"/>
		<path className="feather2" d="M272.2,263.2c0.6,5.7-9.7,7-12.6,10.2"/>
		<path className="feather2" d="M271.5,263.7c4.3,6-4.5,12.2,1.4,19.2"/>
		<path className="feather2" d="M272.6,263.4c4.5-4.8,12-2.6,16.4-7.1"/>
		<path className="feather2" d="M273.7,261.5c9.7-0.9,10.5-6.1,14.9-13.5"/>
		<path className="feather2" d="M274.3,262.7c8-4.6,10.6-6.9,12-16.1"/>
		<path className="feather2" d="M276.6,259.6c4.1-3.2,7-7.6,8.3-12.6"/>
		<path className="feather2" d="M271.4,265.4c7.1,10.3-6.5,11.9-2.7,21.1"/>
		<path className="feather2" d="M273.3,265.2c-1.3,4.5-11.8,11.1-8.7,16.4"/>
		<path className="feather2" d="M301.8,312.4C301.8,312.4,301.9,312.3,301.8,312.4L301.8,312.4c0,3.4,1.1,6.7,2.6,9.6v0.1
			c1.8,1,3.5,1.9,5.3,2.7c0.4-2.1,1.1-4.1,2.5-5.7c0.1-0.1,0.2,0,0.2,0.1c0,1.1,0.2,2.3,0.4,3.4c0.4,1.3,0.7,2.7,1.2,4l0.2,0.4
			c1.4,0.6,2.8,1.2,4.3,1.9c0.5-1.6,1.5-3.1,2.9-4.2c0,0,0.1-0.1,0.2,0l0,0c0.6,1.9,1.4,3.9,2.5,5.7c0.2,0.3,0.4,0.5,0.5,0.8
			c9.4,3.4,18.8,6.4,28.5,8.8c0.9-1.7,2-3.3,3.4-4.6c0,0,0.1-0.1,0.1,0l0,0c0.9,1.9,1.4,4,2.1,6c2.7,0.6,5.2,1.3,7.9,1.9
			c-0.2-2.3,0-4.7,0.4-6.9c0-0.1,0.2-0.1,0.2,0c0.3,1.9,0.8,3.5,1.7,5.2c0.4,1,1.1,1.9,1.7,2.7l1.3,0.4c4.6,1.1,9.1,2.1,13.7,2.9
			c-0.8-1.6-1.4-3.4-1.8-5.2c0-0.1,0.1-0.2,0.2-0.1c8.4,5.8,18.8,8.2,28.9,6.5c2-0.4,7.3-2.3,8.8-0.4c-4.4-5.3-8.4-10.9-12.4-16.5
			c-0.8,0-1.5,0-2.2-0.1c-3.3-0.2-6.7-0.7-9.6-2.3c-0.1,0-0.1-0.1,0-0.2c0,0,0,0,0.1,0c2.9-0.2,5.8-0.8,8.6-1.7
			c-3.7-4.8-7.6-9.4-11.9-13.7c-3.8,1.1-7.8,2.4-11.2-0.1c-0.1,0-0.1-0.2,0-0.2c3.1-0.5,6.1-1.1,9-2c-2.8-2.8-5.7-5.5-8.7-8.1
			c-7.4-6.6-15.4-12.6-23.4-18.6c-1.4,0.3-2.8,0.4-4.2,0.6c-3.2,0.4-6.4,0.4-9.5,0.2c-0.1,0-0.1-0.1-0.1-0.1s0-0.1,0.1-0.1
			c2.2-0.6,4.5-1.1,6.6-1.8c1.1-0.4,2.3-0.8,3.4-1.4c-6.4-4.5-12.8-8.9-19.3-13.4c-0.9-0.6-1.8-1.2-2.7-1.9
			c-1.6,0.4-3.1,1.1-4.7,1.4c-5.5,1.5-11.6,3.9-17.2,2c-0.1,0-0.1-0.1-0.1-0.1s0,0,0.1-0.1c4.1-2.7,7.8-5.9,11.1-9.5
			c-8.7-4.2-18.1-6.5-27.8-4.2c-7.5,1.8-15.5,4.7-24.3,6l2.4,20.2c1.4,13.2,7.4,22.9,17.2,30.7c1-1.6,2.2-3,3.6-4.2h0.1v0.1
			c-0.4,2.3-0.4,4.6,0,6.9c0.6,0.4,1.3,0.9,1.9,1.3c0.6,0.4,1.5,1,2.3,1.4C299.3,316.7,299.9,314.3,301.8,312.4z"/>
		<path className="feather2" d="M257.6,248.6c8.4,11.1,22.8,19.5,34.1,27c17.1,11.2,34.5,23.3,52.2,33.5c10.3,6,20.3,12.6,31,17.6
			c5.7,2.7,21.3,10.3,27.4,13.9"/>
		<path className="feather3" d="M260.4,269.7c3.1,6.5-9.7,10.2-10.5,17.2"/>
		<path className="feather3" d="M261.2,268.9c-2.5,6.2-11.4,4.2-14.7,9.6"/>
		<path className="feather3" d="M260,269.9c0.6,4.8-7.3,8.2-11.1,10"/>
		<path className="feather3" d="M261.9,270.2c-4.2,2.5-5.9,2.5-10.2,1.6c-3.2-0.5-5.6-2.7-8.9-1.1"/>
		<path className="feather3" d="M259.7,270.1c-4.9-1.4-8.9-0.3-13.7,1.1"/>
		<path className="feather3" d="M261.4,270.9c7.2-5.1,10.9,4.3,18.2,3.8"/>
		<path className="feather3" d="M262.6,269.1c6.2,5.8,12.8-0.4,19.3-1.8"/>
		<path className="feather3" d="M263.6,270.3c4.4-4.7,11.3,1.7,16.9-0.6"/>
		<path className="feather3" d="M263.2,268.7c6.7,1.8,11.1-3.3,13.8-8.8"/>
		<path className="feather3" d="M263,268.5c4.1,0.5,9.6-1.8,9.2-7"/>
		<path className="feather3" d="M263.7,269.8c6.5-0.6,9.4,6.4,15.7,6.3"/>
		<path className="feather3" d="M262.9,268.1c6.2,1.6,11.5-3.1,12.3-9.3"/>
		<path className="feather3" d="M261.7,269.9c-2.6,5-10.9,1.9-15.7,4.7"/>
		<path className="feather3" d="M261.4,269.3c-2.6,5-12,0.4-16.1,1.5"/>
		<path className="feather3" d="M260.6,269.3c0.3,7.4-10.6,7.6-9.5,16.8"/>
		<path className="feather3" d="M261.5,269.6c6.5-1.4,11.4,4.5,17.5,3.3"/>
		<path className="feather3" d="M263.6,268.6c8.6,4.7,12.1,0.8,20-3"/>
		<path className="feather3" d="M263.4,270c9.1,0.6,12.6,0.2,19-6.7"/>
		<path className="feather3" d="M266.9,268.6c5.2-0.4,10.1-2.4,14-5.9"/>
		<path className="feather3" d="M259.5,270.6c0.2,12.5-12.1,6.3-14.1,16.1"/>
		<path className="feather3" d="M261.2,271.5c-3.6,3-15.9,2.7-16.4,8.8"/>
		<path className="feather3" d="M258.5,326.6C258.6,326.6,258.6,326.6,258.5,326.6l0.1,0.2c-1.9,2.7-2.7,6.1-3.3,9.3v0.1
			c0.9,1.8,1.9,3.5,2.9,5.3c1.4-1.6,3.3-2.7,5.2-3.4c0.1,0,0.2,0.1,0.1,0.2c-0.6,1-1.1,2-1.5,3.1c-0.5,1.3-0.9,2.7-1.2,4
			c0,0.2-0.1,0.3-0.1,0.4c0.8,1.3,1.7,2.7,2.6,4c1.3-1.1,3-1.7,4.7-1.9c0.1,0,0.1,0,0.1,0.1l0,0c-0.6,1.9-1,4-1.1,6.1
			c0,0.3,0,0.6,0,0.9c5.8,8,12.1,15.8,18.8,23.2c1.7-0.9,3.4-1.6,5.3-1.9c0.1,0,0.1,0,0.1,0.1l0,0c-0.4,2-1.1,4.1-1.6,6.2
			c1.9,2,3.6,4,5.5,6c1.1-2,2.6-3.9,4.2-5.5c0,0,0.1,0,0.2,0v0.1c-0.8,1.7-1.3,3.4-1.5,5.2c-0.1,1.1-0.2,2.1-0.1,3.1
			c0.3,0.4,0.6,0.7,1,1.1c3.2,3.4,6.4,6.9,9.7,10.1c0.2-1.9,0.7-3.6,1.4-5.3c0-0.1,0.2-0.1,0.2,0c2.5,6.3,6.5,11.8,11.8,16.1
			c2.7,2.1,5.6,4,8.7,5.3c1.9,0.9,7.3,2.1,7.5,4.5c-0.7-6.8-0.9-13.7-1.1-20.6c-0.6-0.4-1.2-0.9-1.8-1.3c-2.6-1.9-5.2-4.3-6.6-7.3
			c0-0.1,0-0.1,0-0.1h0.1c2.6,1.5,5.3,2.6,8.1,3.4c-0.4-6-1.1-12-2.2-18c-3.7-1.2-7.8-2.4-9.3-6.4c0-0.1,0-0.2,0.1-0.2
			c2.8,1.2,5.7,2.4,8.7,3.4c-0.8-3.9-1.7-7.8-2.7-11.6c-2.6-9.6-5.7-19.1-9.2-28.5c-1.3-0.6-2.6-1.2-3.9-1.9c-2.8-1.5-5.5-3.2-8-5.1
			c0,0,0-0.1,0-0.2h0.1c2.2,0.8,4.3,1.6,6.5,2.2c1.1,0.4,2.4,0.6,3.6,0.7c-2.7-7.3-5.7-14.6-8.6-21.8c-0.4-1-0.8-2-1.2-3
			c-1.6-0.5-3.2-0.9-4.7-1.4c-5.3-1.8-11.8-3.2-15.5-8c0,0,0-0.1,0-0.2c0,0,0,0,0.1,0c4.9,0,9.8-0.6,14.6-1.7
			c-4.9-8.3-11.4-15.6-20.7-19c-7.3-2.7-15.5-4.7-23.6-8.6l-9.3,18.1c-6.1,11.8-6.5,23.2-2.7,35c1.7-0.8,3.4-1.3,5.3-1.5
			c0.1,0,0.1,0,0.1,0.1v0.1c-1.6,1.7-2.8,3.6-3.8,5.7c0.3,0.7,0.6,1.4,0.9,2.1s0.7,1.6,1.1,2.5C254.2,328.7,256,327.1,258.5,326.6z"
			/>
		<path className="feather3" d="M257.4,248.9c0.9,13.9,8.1,28.8,13.4,41.4c7.9,18.8,15.7,38.6,24.7,56.9c5.2,10.7,9.8,21.8,16,31.9
			c3.3,5.4,11.9,20.3,15,26.7"/>
		<path className="feather2" d="M247.9,268c-1,7.1-13.8,3-18.4,8.5"/>
		<path className="feather2" d="M249.1,267.8c-5.5,3.8-11.9-2.8-17.5-0.2"/>
		<path className="feather2" d="M247.5,267.9c-2.1,4.2-10.7,2.7-14.8,2.1"/>
		<path className="feather2" d="M248.8,269.3c-5-0.3-6.3-1.2-9.3-4.3c-2.4-2.2-3.1-5.4-6.8-5.9"/>
		<path className="feather2" d="M247.1,267.9c-3.3-3.9-7.3-5.2-12-6.6"/>
		<path className="feather2" d="M248,269.5c8.8-0.3,6.6,9.7,13,13.3"/>
		<path className="feather2" d="M250,268.7c1.9,8.2,10.9,6.9,17,9.3"/>
		<path className="feather2" d="M250.2,270.2c6.3-1.4,8.5,7.7,14.4,8.8"/>
		<path className="feather2" d="M250.8,268.8c4.6,5.2,11,3.4,16.4,0.4"/>
		<path className="feather2" d="M250.8,268.5c3,2.7,9,3.9,11.5-0.7"/>
		<path className="feather2" d="M250.7,269.9c5.7,3.1,4.2,10.5,9.5,13.9"/>
		<path className="feather2" d="M250.9,268c4.2,4.8,11.3,3.9,15.4-0.9"/>
		<path className="feather2" d="M248.9,268.9c-5,2.7-10.1-4.4-15.7-4.9"/>
		<path className="feather2" d="M249,268.2c-5,2.7-10.2-6.4-14.2-7.7"/>
		<path className="feather2" d="M248.3,267.7c-3.9,6.4-13,0.4-17.2,8.7"/>
		<path className="feather2" d="M248.9,268.6c6.2,2.4,7,10.2,12.7,12.5"/>
		<path className="feather2" d="M251.2,268.8c4.5,8.7,9.6,7.4,18.2,8.7"/>
		<path className="feather2" d="M250.3,269.9c7.3,5.6,10.4,7.2,19.5,5"/>
		<path className="feather2" d="M254,270.8c4.5,2.6,9.7,3.6,14.9,2.8"/>
		<path className="feather2" d="M246.7,268.2c-6.8,10.5-13.5-1.5-20.6,5.5"/>
		<path className="feather2" d="M247.6,269.9c-4.7,0.5-14.7-6.6-18.5-1.8"/>
		<path className="feather2" d="M214.7,314.2C214.8,314.2,214.8,314.3,214.7,314.2c0.1,0.1,0.1,0.1,0,0.2c-3.1,1.1-5.7,3.5-8,5.9l-0.1,0.1
			c-0.2,2-0.4,4-0.5,6c2-0.5,4.2-0.4,6.3,0.1c0.1,0,0.1,0.2,0,0.2c-1.1,0.4-2,1.1-3,1.7c-1.1,0.8-2.2,1.7-3.2,2.7l-0.4,0.3
			c-0.1,1.6-0.1,3.1-0.1,4.7c1.7-0.1,3.4,0.3,5,1.1c0,0,0.1,0.1,0,0.1l0,0c-1.6,1.3-3.1,2.7-4.3,4.4c-0.2,0.3-0.4,0.5-0.5,0.8
			c0.4,9.9,1.2,19.9,2.7,29.7c1.9,0.2,3.7,0.6,5.5,1.3c0,0,0,0.1,0,0.2l0,0c-1.5,1.5-3.2,2.8-4.7,4.2c0.4,2.7,0.8,5.3,1.2,8
			c2-1.1,4.2-1.8,6.5-2.2c0.1,0,0.2,0.1,0.1,0.2c-1.6,1-3,2.1-4.2,3.5c-0.7,0.8-1.3,1.7-1.9,2.6c0.1,0.4,0.2,0.9,0.2,1.3
			c0.7,4.6,1.5,9.3,2.5,13.9c1.1-1.4,2.6-2.6,4.2-3.5c0.1,0,0.2,0,0.2,0.1c-2.2,10-0.4,20.5,5,29.2c1.1,1.7,4.9,5.8,3.7,8
			c3.2-6.1,6.9-11.9,10.5-17.8c-0.3-0.7-0.5-1.4-0.8-2.1c-1.1-3.1-1.9-6.5-1.5-9.7c0-0.1,0.1-0.1,0.1-0.1s0.1,0,0.1,0.1
			c1.3,2.7,2.9,5.1,4.9,7.3c3-5.2,5.7-10.6,8.2-16.2c-2.4-3.1-5.1-6.3-4.2-10.4c0-0.1,0.1-0.1,0.2,0l0,0c1.6,2.7,3.4,5.2,5.3,7.6
			c1.5-3.6,2.9-7.3,4.2-11.1c3.3-9.4,5.8-19,8.2-28.7c-0.8-1.1-1.5-2.5-2.1-3.7c-1.5-2.8-2.7-5.7-3.8-8.7c0-0.1,0-0.1,0.1-0.1h0.1
			c1.4,1.9,2.7,3.7,4.2,5.5c0.8,1,1.7,1.9,2.7,2.7c1.8-7.6,3.4-15.3,5-22.9c0.3-1.1,0.4-2.1,0.7-3.2c-1-1.3-2.1-2.5-3.1-3.8
			c-3.4-4.5-8-9.2-8.4-15.1c0-0.1,0-0.1,0.1-0.1c0,0,0,0,0.1,0c4.1,2.7,8.5,5,13,6.7c0.6-9.6-0.8-19.3-6.6-27.3
			c-4.5-6.3-10.3-12.6-14.9-20.3l-17.8,9.9c-11.7,6.4-18.3,15.6-21.8,27.6c1.9,0.3,3.6,0.9,5.3,1.8c0.1,0,0.1,0.1,0.1,0.1
			s0,0.1-0.1,0.1c-2.2,0.5-4.4,1.4-6.4,2.7c-0.2,0.8-0.3,1.5-0.4,2.3c-0.2,0.9-0.3,1.8-0.4,2.7C209.9,313.5,212.4,313.2,214.7,314.2
			z"/>
		<path className="feather2" d="M257,249.1c-7,12-9.3,28.5-11.9,41.8c-4,20.1-8.4,40.8-11.2,61c-1.7,11.8-3.9,23.5-4.5,35.4
			c-0.3,6.3-1.4,23.6-2.4,30.6"/>
		<path className="feather2" d="M238.4,259.6c-4.8,5.3-13.2-5.1-20-3.2"/>
		<path className="feather2" d="M239.6,260.2c-6.7,0.1-8.2-8.9-14.5-9.9"/>
		<path className="feather2" d="M238.2,259.4c-4.2,2.4-10.3-3.7-13.4-6.5"/>
		<path className="feather2" d="M238.5,261.2c-3.9-3-4.5-4.6-5.3-8.8c-0.7-3.2,0.4-6.2-2.4-8.7"/>
		<path className="feather2" d="M237.9,259.2c-0.5-5-3.2-8.4-6.3-12.2"/>
		<path className="feather2" d="M237.7,261c7.5,4.7,0.1,11.8,3.4,18.3"/>
		<path className="feather2" d="M240,261.4c-3,8,5.2,11.8,9,17.2"/>
		<path className="feather2" d="M239.2,262.8c6,2.3,2.7,11.1,7,15.4"/>
		<path className="feather2" d="M240.5,261.9c1,6.9,7.2,8.9,13.4,9.4"/>
		<path className="feather2" d="M240.7,261.7c1.1,4,5.3,8.2,10,5.8"/>
		<path className="feather2" d="M239.7,262.8c3,5.7-2.3,11.1,0.2,16.8"/>
		<path className="feather2" d="M240.9,261.4c0.9,6.4,7.3,9.5,13.3,7.8"/>
		<path className="feather2" d="M238.8,260.9c-5.7-0.4-5.8-9.3-10.3-12.8"/>
		<path className="feather2" d="M239.3,260.4c-5.7-0.4-4.9-11-7.5-14.3"/>
		<path className="feather2" d="M239,259.6c-6.8,3.1-11.1-6.9-19.1-2.4"/>
		<path className="feather2" d="M239.1,260.7c3.8,5.4,0.2,12.3,3.6,17.4"/>
		<path className="feather2" d="M240.7,262.2c-1.1,9.7,3.9,11.6,10.3,17.3"/>
		<path className="feather2" d="M239.4,262.5c2.9,8.7,4.7,11.8,13.4,15"/>
		<path className="feather2" d="M242,265.4c2.3,4.7,6.1,8.4,10.8,10.6"/>
		<path className="feather2" d="M237.4,259.2c-11.5,5-10.4-8.8-20.2-6.9"/>
		<path className="feather2" d="M237.2,261c-4.2-2.2-8.5-13.7-14.3-11.8"/>
		<path className="feather2" d="M185.2,279.6C185.2,279.7,185.2,279.7,185.2,279.6C185.2,279.7,185.2,279.7,185.2,279.6
			c-3.3-0.6-6.8-0.2-10,0.6h-0.1c-1.3,1.5-2.6,3.1-3.8,4.7c1.9,0.7,3.7,1.9,5.1,3.5c0.1,0.1,0,0.2-0.1,0.2c-1.1-0.2-2.3-0.3-3.4-0.2
			c-1.4,0-2.7,0.2-4.2,0.4l-0.4,0.1c-0.9,1.2-1.8,2.6-2.7,3.8c1.5,0.9,2.7,2.1,3.4,3.6v0.1c0,0,0,0-0.1,0c-2,0.2-4.1,0.6-6,1.2
			c-0.3,0.1-0.6,0.2-0.9,0.4c-5.2,8.5-10,17.2-14.3,26.2c1.5,1.1,2.7,2.6,3.8,4.2c0,0,0,0.2-0.1,0.2c-2,0.4-4.2,0.6-6.3,0.9
			c-1.1,2.5-2.3,4.9-3.4,7.3c2.3,0.3,4.6,0.9,6.7,1.8c0.1,0,0.1,0.2,0,0.2c-1.9-0.1-3.7,0.1-5.4,0.6c-1,0.3-2,0.6-2.9,1.1l-0.6,1.2
			c-1.9,4.2-3.9,8.5-5.7,12.9c1.8-0.5,3.6-0.7,5.4-0.6c0.1,0,0.2,0.1,0.1,0.2c-4.9,4.7-8.4,10.5-10.4,17c-1,3.3-1.5,6.6-1.6,10.1
			c-0.1,2,0.8,7.5-1.3,8.8c6-3.3,12.4-6,18.7-8.9c0.2-0.7,0.4-1.5,0.5-2.2c0.9-3.1,2-6.5,4.2-8.9c0,0,0.1,0,0.2,0v0.1
			c-0.4,2.9-0.4,5.8-0.1,8.8c5.5-2.7,10.7-5.6,15.8-8.8c-0.3-3.9-0.7-8.1,2.3-11.1c0.1-0.1,0.2,0,0.2,0.1c-0.1,3.1-0.1,6.2,0.2,9.3
			c3.3-2.2,6.5-4.5,9.6-6.8c8-6,15.5-12.6,22.8-19.3c0-1.4,0.1-2.8,0.3-4.2c0.4-3.2,0.9-6.3,1.7-9.4c0-0.1,0.2-0.1,0.2,0
			c0.1,2.3,0.2,4.6,0.4,6.9c0.1,1.2,0.4,2.5,0.7,3.6c5.7-5.3,11.3-10.8,17-16.2c0.8-0.8,1.6-1.5,2.4-2.3c-0.1-1.6-0.4-3.3-0.5-4.9
			c-0.4-5.7-1.5-12.1,1.4-17.2c0-0.1,0.1-0.1,0.1-0.1s0.1,0,0.1,0.1c1.9,4.5,4.2,8.8,7.1,12.8c5.8-7.7,10.1-16.5,9.7-26.4
			c-0.3-7.7-1.5-16.1-1.1-25l-20.3-1.6c-13.2-1.2-24,2.7-33.4,10.8c1.3,1.2,2.5,2.7,3.4,4.3c0,0.1,0,0.1-0.1,0.1h-0.1
			c-2.2-0.8-4.5-1.2-6.8-1.3c-0.5,0.5-1.1,1.1-1.7,1.7c-0.6,0.6-1.2,1.3-1.9,1.9C181.6,276.3,183.8,277.4,185.2,279.6z"/>
		<path className="feather2" d="M256.6,249c-12.5,6-23.6,18.5-33.2,28.1c-14.4,14.4-29.6,29.2-43.3,44.4c-7.9,8.8-16.4,17.3-23.4,27
			c-3.7,5-14.3,18.8-19,24.1"/>
		<path className="feather3" d="M235.4,247.4c-7,1.8-8-11.6-14.9-13.7"/>
		<path className="feather3" d="M236,248.5c-5.6-3.6-1.9-11.9-6.5-16.3"/>
		<path className="feather3" d="M235.3,247.1c-4.8-0.4-6.5-8.8-7.6-12.8"/>
		<path className="feather3" d="M234.5,248.8c-1.6-4.7-1.2-6.3,0.5-10.3c1.1-3,3.8-4.9,2.8-8.6"/>
		<path className="feather3" d="M235.2,246.7c2.4-4.5,2-8.8,1.6-13.7"/>
		<path className="feather3" d="M233.9,248.2c3.6,8-6.5,9.8-7.3,17.1"/>
		<path className="feather3" d="M235.5,249.7c-6.9,4.9-2.2,12.6-2.1,19.3"/>
		<path className="feather3" d="M234.1,250.4c3.7,5.3-3.9,10.7-2.7,16.7"/>
		<path className="feather3" d="M235.7,250.4c-3.1,6.3,1,11.4,5.8,15.2"/>
		<path className="feather3" d="M236.1,250.3c-1.3,3.9-0.2,9.8,5,10.4"/>
		<path className="feather3" d="M234.6,250.8c-0.7,6.5-8.1,8-9.3,14.1"/>
		<path className="feather3" d="M236.4,250.2c-2.8,5.7,0.7,11.9,6.7,13.9"/>
		<path className="feather3" d="M234.9,248.7c-4.4-3.5,0.3-11-1.5-16.4"/>
		<path className="feather3" d="M235.6,248.6c-4.4-3.5,2-11.9,1.8-16"/>
		<path className="feather3" d="M235.8,247.7c-7.3-1.2-5.4-11.9-14.6-12.6"/>
		<path className="feather3" d="M235.3,248.7c0.2,6.6-6.7,10.3-6.6,16.5"/>
		<path className="feather3" d="M235.8,250.9c-6.3,7.4-3.2,11.8-1.1,20.2"/>
		<path className="feather3" d="M234.6,250.4c-2.4,8.8-2.7,12.4,2.7,20"/>
		<path className="feather3" d="M235.1,254.1c-0.7,5.1,0.4,10.3,3,14.9"/>
		<path className="feather3" d="M234.6,246.4c-12.3-2.3-3.7-13.1-12.9-17"/>
		<path className="feather3" d="M233.5,247.9c-2.2-4.2,0.5-16.1-5.3-17.8"/>
		<path className="feather3" d="M180,234.4C180,234.5,180,234.5,180,234.4l-0.2,0.1c-2.2-2.4-5.5-4-8.5-5.1h-0.1c-1.9,0.5-3.8,1.1-5.7,1.8
			c1.2,1.7,2,3.7,2.3,5.8c0,0.1-0.1,0.1-0.2,0.1c-0.8-0.8-1.8-1.5-2.7-2.1c-1.1-0.7-2.4-1.4-3.6-1.9l-0.4-0.2
			c-1.4,0.5-2.9,1.1-4.3,1.7c0.8,1.5,1.1,3.3,0.9,5c0,0.1-0.1,0.1-0.1,0.1l0,0c-1.8-1-3.7-1.8-5.7-2.3c-0.3-0.1-0.6-0.2-0.9-0.2
			c-9,4.2-17.9,8.8-26.4,13.8c0.5,1.8,0.9,3.7,0.8,5.6c0,0.1-0.1,0.1-0.1,0.1c-1.9-0.8-3.8-1.9-5.7-2.7c-2.3,1.4-4.6,2.7-6.9,4.2
			c1.8,1.5,3.3,3.3,4.6,5.2c0.1,0.1-0.1,0.2-0.1,0.1c-1.5-1.1-3.1-1.9-4.9-2.6c-1-0.4-2-0.5-3-0.7l-1.1,0.7c-4,2.4-8,4.9-11.9,7.5
			c1.8,0.5,3.4,1.4,4.9,2.5c0.1,0,0.1,0.1,0.1,0.1s0,0-0.1,0.1c-6.6,1.2-12.8,4.1-18.1,8.3c-2.7,2.2-5,4.7-7.1,7.5
			c-1.1,1.7-3.5,6.7-5.9,6.5c6.9,0.6,13.6,1.9,20.4,3c0.5-0.5,1.1-1.1,1.7-1.5c2.5-2.1,5.3-4.2,8.5-5.1c0.1,0,0.1,0,0.1,0.1v0.1
			c-1.9,2.2-3.6,4.7-5,7.3c6,0.8,12,1.3,18.1,1.4c1.9-3.4,3.9-7.2,8-7.9c0.1,0,0.2,0.1,0.1,0.2c-1.9,2.5-3.5,5.1-5,7.8
			c4,0,8-0.1,11.9-0.3c9.9-0.5,19.8-1.8,29.7-3.4c0.8-1.1,1.7-2.3,2.6-3.4c2-2.5,4.2-4.7,6.6-6.8c0,0,0.1,0,0.2,0v0.1
			c-1.1,1.9-2.5,3.9-3.4,6c-0.6,1.1-1.1,2.2-1.4,3.4c7.7-1.2,15.4-2.7,23.1-4l3.2-0.6c0.8-1.4,1.5-2.9,2.3-4.3
			c2.8-4.9,5.5-10.9,10.8-13.5c0.1,0,0.1,0,0.1,0v0.1c-1,4.8-1.4,9.7-1.2,14.6c9.1-3.1,17.5-8,22.7-16.5c4.1-6.5,7.7-14.2,13.1-21.4
			l-15.9-12.6c-10.3-8.4-21.4-11.1-33.8-9.7c0.4,1.8,0.5,3.7,0.4,5.5c0,0.1-0.1,0.1-0.1,0.1h-0.1c-1.4-1.9-3-3.5-4.9-4.9l-2.3,0.4
			c-0.9,0.2-1.8,0.4-2.7,0.6C178.8,229.6,180,231.8,180,234.4z"/>
		<path className="feather3" d="M256.3,248.7c-13.8-1.9-29.9,2.2-43.3,4.9c-20.1,4-40.9,7.8-60.7,12.8c-11.5,2.9-23.3,5.3-34.5,9.3
			c-5.9,2.1-22.4,7.7-29.2,9.5"/>
		<path className="feather2" d="M239.5,235.6c-6.8-2.4-0.3-14.1-4.7-19.6"/>
		<path className="feather2" d="M239.5,236.7c-2.7-6.1,5.1-11.1,3.6-17.2"/>
		<path className="feather2" d="M239.6,235.2c-3.8-2.9-0.5-11,0.9-14.9"/>
		<path className="feather2" d="M238,236.3c1.2-4.8,2.5-5.9,6.1-8.2c2.7-1.9,5.9-1.9,7.2-5.5"/>
		<path className="feather2" d="M239.8,234.9c4.5-2.5,6.5-6.1,8.9-10.5"/>
		<path className="feather2" d="M237.9,235.4c-1.4,8.7-10.8,4.6-15.6,10.1"/>
		<path className="feather2" d="M238.4,237.6c-8.5,0.2-8.8,9.3-12.5,14.9"/>
		<path className="feather2" d="M236.9,237.4c0.1,6.5-9.2,6.8-11.6,12.4"/>
		<path className="feather2" d="M238.1,238.3c-6,3.4-5.6,10.1-3.6,15.9"/>
		<path className="feather2" d="M238.4,238.4c-3.3,2.5-5.7,8-1.7,11.4"/>
		<path className="feather2" d="M237,238c-4.2,5-11.1,2-15.6,6.5"/>
		<path className="feather2" d="M238.8,238.6c-5.6,3.3-6,10.3-2.2,15.2"/>
		<path className="feather2" d="M238.4,236.4c-1.7-5.4,6.4-8.9,7.9-14.4"/>
		<path className="feather2" d="M239.2,236.6c-1.7-5.4,8.3-8.7,10.3-12.4"/>
		<path className="feather2" d="M239.7,236c-5.4-5.1,2.1-12.8-5-18.6"/>
		<path className="feather2" d="M238.8,236.5c-3.5,5.6-11.3,4.9-14.8,10"/>
		<path className="feather2" d="M238,238.7c-9.4,2.7-9.2,8-12.1,16.2"/>
		<path className="feather2" d="M237.2,237.5c-6.9,6-9.1,8.8-8.8,18.1"/>
		<path className="feather2" d="M235.6,241c-3.4,3.9-5.5,8.8-5.7,14"/>
		<path className="feather2" d="M239.5,234.3c-8.9-8.8,4.2-12.9-1.3-21.3"/>
		<path className="feather2" d="M237.7,234.9c0.4-4.7,9.5-13.1,5.5-17.7"/>
		<path className="feather2" d="M200.8,193.9C200.8,194,200.7,194,200.8,193.9c-0.1,0.1-0.1,0.1-0.2,0c-0.5-3.3-2.3-6.3-4.2-8.9
			c0,0,0-0.1-0.1-0.1c-1.9-0.6-3.8-1.1-5.7-1.7c0.1,2.1-0.4,4.2-1.3,6.1c0,0.1-0.2,0-0.2,0c-0.3-1.1-0.6-2.2-1.1-3.3
			c-0.5-1.2-1.2-2.5-1.9-3.6l-0.3-0.4c-1.5-0.4-3-0.7-4.6-1.1c-0.2,1.7-1,3.3-2,4.6c0,0-0.1,0.1-0.2,0l0,0c-1-1.9-2.1-3.5-3.4-5.1
			c-0.2-0.3-0.4-0.4-0.6-0.7c-9.8-1.6-19.7-2.7-29.6-3.3c-0.5,1.9-1.3,3.5-2.5,5.1c0,0-0.1,0-0.2,0l0,0c-1.1-1.8-2.1-3.6-3.2-5.5
			c-2.7-0.2-5.4-0.3-8-0.4c0.6,2.2,0.9,4.6,0.9,6.9c0,0.1-0.2,0.1-0.2,0c-0.6-1.8-1.5-3.4-2.7-4.8c-0.6-0.8-1.3-1.6-2.1-2.3
			l-1.4-0.1c-4.7-0.2-9.4-0.4-14.1-0.4c1.1,1.4,2,3,2.7,4.8c0,0.1,0,0.2-0.1,0.1c-6.2-2.7-12.9-3.8-19.6-3.2
			c-3.4,0.4-6.7,1.1-9.9,2.3c-1.9,0.7-6.6,3.6-8.6,2.1c5.3,4.3,10.3,9.1,15.3,13.9c0.7-0.1,1.5-0.3,2.2-0.4c3.3-0.4,6.7-0.6,9.9,0.4
			c0.1,0,0.1,0.1,0.1,0.1s0,0.1-0.1,0.1c-2.8,0.7-5.6,1.9-8.1,3.3c4.5,4,9.3,7.8,14.2,11.2c3.5-1.8,7.3-3.8,11.1-2.1
			c0.1,0,0.1,0.2,0,0.2c-2.9,1.1-5.7,2.3-8.5,3.7c3.3,2.2,6.6,4.3,10,6.4c8.6,5,17.5,9.6,26.5,13.8c1.3-0.5,2.7-1,4.1-1.4
			c3-0.9,6.1-1.6,9.3-1.9c0.1,0,0.1,0,0.1,0.1s0,0.1-0.1,0.1c-2.1,1-4.2,1.9-6.2,3c-1.1,0.5-2.1,1.2-3.1,2
			c7.1,3.3,14.3,6.4,21.4,9.6c1,0.4,2,0.9,3,1.3c1.4-0.7,2.8-1.6,4.3-2.3c5-2.5,10.6-6,16.5-5.2c0.1,0,0.1,0.1,0.1,0.1v0.1
			c-3.4,3.4-6.5,7.3-9.2,11.4c9.4,2.5,19,3,28.1-1.1c7.1-3.2,14.3-7.5,22.8-10.5l-6.1-19.4c-3.9-12.6-11.7-21.1-22.6-26.9
			c-0.6,1.8-1.6,3.4-2.7,4.9c0,0-0.1,0-0.2,0c0,0,0,0,0-0.1c-0.1-2.3-0.5-4.6-1.3-6.8c-0.7-0.4-1.4-0.6-2.1-0.9
			c-0.8-0.4-1.7-0.6-2.5-1C202.6,189.3,202.1,191.8,200.8,193.9z"/>
		<path className="feather2" d="M256.2,248.3c-10.3-9.3-26-14.8-38.6-20c-18.8-7.9-38.3-16.4-57.6-23.1c-11.2-4-22.3-8.5-33.8-11.4
			c-6.1-1.5-22.8-6.1-29.5-8.4"/>
		<path className="feather3" d="M249.6,228c-4.3-5.7,7.7-11.9,7.1-18.9"/>
		<path className="feather3" d="M248.9,229c1.2-6.5,10.3-6.3,12.6-12.2"/>
		<path className="feather3" d="M249.9,227.8c-1.5-4.5,5.7-9.5,9-11.9"/>
		<path className="feather3" d="M248,227.8c3.7-3.3,5.4-3.5,9.6-3.4c3.3-0.1,6,1.7,9-0.6"/>
		<path className="feather3" d="M250.2,227.6c5,0.4,8.8-1.4,13.3-3.7"/>
		<path className="feather3" d="M248.4,227c-6.1,6.5-11.6-2.2-18.6-0.3"/>
		<path className="feather3" d="M247.6,229.1c-7.2-4.5-12.6,2.7-18.6,5.4"/>
		<path className="feather3" d="M246.3,228c-3.4,5.4-11.4,0.5-16.5,3.8"/>
		<path className="feather3" d="M246.9,229.6c-7-0.4-10.2,5.3-11.9,11.2"/>
		<path className="feather3" d="M247.1,229.8c-4.1,0.2-9.1,3.5-7.7,8.6"/>
		<path className="feather3" d="M246.2,228.6c-6.2,1.8-10.4-4.5-16.5-3.2"/>
		<path className="feather3" d="M247.4,230.1c-6.5-0.4-10.7,5.2-10.3,11.5"/>
		<path className="feather3" d="M248.2,228c1.6-5.4,10.3-3.9,14.6-7.6"/>
		<path className="feather3" d="M248.7,228.7c1.6-5.4,11.7-2.7,15.5-4.5"/>
		<path className="feather3" d="M249.5,228.6c-1.7-7.3,8.9-9.6,6.2-18.3"/>
		<path className="feather3" d="M248.4,228.4c-6,2.7-12.1-2.3-17.9,0.1"/>
		<path className="feather3" d="M246.6,229.7c-9.3-3-12.1,1.5-19.1,6.7"/>
		<path className="feather3" d="M246.6,228.4c-9.1,1.1-12.5,2.2-17.4,10.2"/>
		<path className="feather3" d="M243.3,230.3c-5,1.3-9.5,4.2-12.6,8.4"/>
		<path className="feather3" d="M250.2,227.1c-2.6-12.2,10.7-8.4,10.8-18.4"/>
		<path className="feather3" d="M248.4,226.5c2.9-3.6,15.1-5.7,14.3-11.7"/>
		<path className="feather3" d="M240.7,171.9C240.6,171.9,240.5,171.8,240.7,171.9c1.2-3.1,1.5-6.6,1.4-9.9v-0.1c-1.2-1.6-2.6-3.1-3.8-4.6
			c-1.1,1.8-2.7,3.3-4.5,4.3c-0.1,0-0.2-0.1-0.1-0.1c0.4-1.1,0.7-2.2,0.9-3.4c0.3-1.3,0.4-2.7,0.4-4.2c0-0.2,0-0.3,0-0.4
			c-1.1-1.1-2.1-2.3-3.3-3.4c-1.1,1.3-2.7,2.2-4.2,2.7c-0.1,0-0.1,0-0.1-0.1l0,0c0.3-2,0.3-4.2,0-6.2c0-0.3-0.1-0.6-0.2-0.9
			c-7.3-6.8-14.9-13.3-22.8-19.2c-1.4,1.2-3.1,2.2-4.9,2.9c-0.1,0-0.1,0-0.1-0.1l0,0c0-2.1,0.3-4.2,0.4-6.4
			c-2.1-1.6-4.3-3.3-6.5-4.9c-0.7,2.2-1.8,4.2-3.1,6.2c-0.1,0.1-0.2,0-0.2-0.1c0.4-1.8,0.6-3.6,0.5-5.5c-0.1-1.1-0.3-2.1-0.5-3.1
			l-1.1-0.8c-3.7-2.7-7.6-5.5-11.5-8c0.2,1.9,0,3.6-0.4,5.4c0,0.1-0.1,0.1-0.2,0c-3.6-5.7-8.7-10.3-14.6-13.6
			c-3-1.6-6.2-2.8-9.6-3.6c-1.9-0.4-7.6-0.7-8.3-3c2,6.5,3.4,13.4,5,20c0.7,0.3,1.3,0.6,2,1c2.9,1.4,5.9,3.3,8,5.8
			c0.1,0.1,0,0.2-0.1,0.2c-2.7-1-5.7-1.5-8.6-1.8c1.5,5.8,3.4,11.6,5.6,17.2c3.9,0.5,8,0.9,10.3,4.4c0,0.1,0,0.1,0,0.2
			c0,0,0,0-0.1,0c-3-0.7-6-1.3-9.1-1.7c1.5,3.7,3.1,7.3,4.8,10.9c4.3,8.9,9.2,17.7,14.3,26.2c1.4,0.3,2.7,0.7,4.2,1.1
			c3,1,6,2.1,8.8,3.5c0,0,0.1,0.1,0,0.2h-0.1c-2.3-0.4-4.5-0.8-6.8-1c-1.2-0.1-2.5-0.1-3.7,0c4.1,6.6,8.3,13.3,12.5,19.8
			c0.6,0.9,1.1,1.9,1.8,2.7c1.6,0.2,3.3,0.3,4.9,0.5c5.6,0.8,12.2,0.9,16.6,4.9c0,0,0,0.1,0,0.2c0,0,0,0-0.1,0
			c-4.8,1-9.5,2.5-14,4.4c6.4,7.3,14.2,13.1,24,14.8c7.6,1.3,16.1,1.7,24.8,4l5.7-19.5c3.8-12.7,2-24-3.9-34.9
			c-1.5,1.1-3.2,1.9-5,2.5c-0.1,0-0.1,0-0.1-0.1v-0.1c1.2-1.9,2.1-4.2,2.7-6.4c-0.4-0.6-0.9-1.3-1.3-1.9s-1.1-1.5-1.6-2.2
			C244.7,169.1,242.9,170.8,240.7,171.9z"/>
		<path className="feather3" d="M256.4,247.9c-3.4-13.4-13.4-26.8-21-38.1c-11.3-17-22.7-34.8-34.9-51.2c-7.1-9.6-13.8-19.5-21.8-28.3
			c-4.2-4.7-15.6-17.8-19.8-23.4"/>
	</g>
</g>
</svg>
