<?xml version="1.0" encoding="utf-8"?>
<!-- Generator: Adobe Illustrator 24.0.1, SVG Export Plug-In . SVG Version: 6.00 Build 0)  -->
<svg version="1.1" id="feather-hair_1_" xmlns="http://www.w3.org/2000/svg" xmlns:xlink="http://www.w3.org/1999/xlink" x="0px"
	 y="0px" viewBox="0 0 518.1 921.4" style="enable-background:new 0 0 518.1 921.4;" xml:space="preserve">
<style type="text/css">
	.feather1{opacity:0.5;}
	.feather2{fill:#FF92C6;}
	.feather3{fill:#3EC0F0;}
</style>
<g class="feather1">
	<path class="feather2" d="M257.4,496.4c-2.1-7.8,13-9.2,15.4-16.9"/>
	<path class="feather2" d="M256.3,497.2c4-6.4,13.5-2.3,18.3-7.6"/>
	<path class="feather2" d="M257.8,496.3c0.3-5.4,9.9-7.5,14.5-8.7"/>
	<path class="feather2" d="M255.8,495.5c5.2-1.9,7.1-1.5,11.6,0.4c3.4,1.3,5.6,4.3,9.7,3.1"/>
	<path class="feather2" d="M258.2,496.2c5.1,2.6,9.9,2.2,15.5,1.6"/>
	<path class="feather2" d="M256.5,494.9c-9,4.2-11.2-7.2-19.4-8.1"/>
	<path class="feather2" d="M254.8,496.7c-5.6-7.8-14.3-2.4-21.8-2.1"/>
	<path class="feather2" d="M254,495.1c-5.9,4.2-12.2-4.3-18.9-2.9"/>
	<path class="feather2" d="M254,496.9c-7.1-3.4-12.9,1.3-17.2,6.8"/>
	<path class="feather2" d="M254.1,497.3c-4.4-1.5-11.1-0.1-11.7,5.8"/>
	<path class="feather2" d="M253.7,495.6c-7.3-0.7-9.1-9.1-16-10.3"/>
	<path class="feather2" d="M254.2,497.7c-6.6-3.1-13.5,1-15.6,7.7"/>
	<path class="feather2" d="M255.9,495.9c4-5,12.4,0.2,18.5-1.9"/>
	<path class="feather2" d="M256.2,496.7c4-5,13.4,2.2,18.2,1.8"/>
	<path class="feather2" d="M257.1,496.9c1.3-8.3,13.4-6.2,14.1-16.6"/>
	<path class="feather2" d="M256.1,496.3c-7.5,0.2-11.7-7.5-18.8-7.4"/>
	<path class="feather2" d="M253.5,497c-8.5-7-13.3-3.5-22.8-1"/>
	<path class="feather2" d="M254.1,495.5c-10-2.6-14-2.9-22.5,3.4"/>
	<path class="feather2" d="M249.8,496.2c-5.8-0.7-11.7,0.5-16.7,3.6"/>
	<path class="feather2" d="M258.5,495.7c2.5-13.9,14.8-4.4,19-14.8"/>
	<path class="feather2" d="M256.8,494.3c4.6-2.6,18.2,0.4,20-6.2"/>
	<path class="feather2" d="M271.5,433.7c-0.1,0-0.1-0.1-0.1-0.1c0,0,0,0,0-0.1c2.7-2.6,4.4-6.2,5.7-9.6c0,0,0-0.1,0-0.1
		c-0.7-2.2-1.4-4.3-2.1-6.5c-1.9,1.4-4.1,2.3-6.5,2.6c-0.1,0-0.1-0.1-0.1-0.2c0.9-0.9,1.7-2,2.3-3.1c0.8-1.3,1.5-2.7,2.2-4.2
		c0.1-0.1,0.1-0.3,0.2-0.5c-0.6-1.7-1.3-3.3-2-4.9c-1.7,0.9-3.7,1.2-5.6,1c-0.1,0-0.1-0.1-0.1-0.1c0,0,0,0,0,0
		c1.1-2.1,2-4.2,2.5-6.5c0.1-0.3,0.2-0.7,0.2-1c-4.8-10.2-10.1-20.1-15.9-29.8c-2,0.7-4.2,1-6.3,1c-0.1,0-0.1-0.1-0.1-0.1
		c0.9-2.2,2-4.3,3-6.5c-1.6-2.6-3.2-5.2-4.8-7.8c-1.7,2-3.7,3.8-5.9,5.2c-0.1,0-0.1,0-0.1,0c0,0,0-0.1,0-0.1
		c1.2-1.7,2.2-3.5,2.8-5.5c0.4-1.1,0.6-2.3,0.8-3.5l-0.8-1.3c-2.8-4.5-5.6-9-8.7-13.3c-0.6,2-1.5,3.8-2.7,5.5c0,0.1-0.1,0.1-0.1,0.1
		c0,0-0.1,0-0.1-0.1c-1.5-7.5-4.8-14.5-9.6-20.4c-2.5-3-5.4-5.6-8.5-7.8c-1.9-1.3-7.6-3.9-7.4-6.6c-0.6,7.8-2,15.4-3.1,23.1
		c0.6,0.6,1.2,1.2,1.7,1.9c2.4,2.8,4.9,5.9,5.9,9.5c0,0.1,0,0.1-0.1,0.1c0,0-0.1,0-0.1,0c-2.5-2.2-5.3-4-8.3-5.5
		c-0.9,6.8-1.3,13.6-1.4,20.5c3.8,2.2,8.1,4.3,9,9c0,0.1-0.1,0.2-0.1,0.1c-2.9-2-5.8-3.9-8.9-5.6c0,4.5,0.2,9,0.5,13.4
		c0.8,11.2,2.3,22.4,4.1,33.5c1.3,0.9,2.6,1.9,3.9,2.9c2.8,2.2,5.4,4.7,7.8,7.4c0,0,0,0.1,0,0.2c0,0-0.1,0-0.1,0
		c-2.2-1.3-4.5-2.7-6.8-3.9c-1.2-0.7-2.5-1.2-3.9-1.6c1.5,8.7,3.2,17.4,4.8,26.1c0.2,1.2,0.5,2.4,0.7,3.6c1.6,0.9,3.3,1.7,4.9,2.6
		c5.6,3.1,12.4,6.1,15.4,12.1c0,0.1,0,0.1,0,0.1c0,0-0.1,0-0.1,0c-5.4-1-11-1.4-16.5-1.3c3.6,10.3,9.3,19.7,18.9,25.5
		c7.5,4.5,16.2,8.5,24.4,14.5l14.2-18.2c9.3-11.7,12.2-24.3,10.6-38.3c-2,0.5-4.1,0.7-6.2,0.5c-0.1,0-0.1-0.1-0.1-0.1
		c0,0,0-0.1,0-0.1c2.1-1.6,3.9-3.5,5.5-5.6c-0.2-0.9-0.3-1.7-0.5-2.6s-0.5-2-0.7-3C277,432.4,274.3,433.6,271.5,433.7z"/>
	<path class="feather2" d="M256.2,520.2c2-15.6-2.8-33.7-6-48.8c-4.7-22.6-9.3-46.2-15.2-68.4c-3.5-13-6.3-26.2-10.9-38.9
		c-2.5-6.7-8.9-25.2-11-32.9"/>
	<path class="feather3" d="M270.9,501c2.6-7.7,15.9-0.4,22.2-5.5"/>
	<path class="feather3" d="M269.5,501c6.9-3,12.5,5.6,19.4,3.9"/>
	<path class="feather3" d="M271.3,501.1c3.3-4.3,12.4-0.7,16.9,0.8"/>
	<path class="feather3" d="M270.1,499.4c5.4,1.4,6.7,2.8,9.4,6.8c2.1,3,2.2,6.6,6.3,8"/>
	<path class="feather3" d="M271.7,501.2c2.8,5,7,7.3,12,9.9"/>
	<path class="feather3" d="M271,499.2c-9.9-1.6-5.3-12.2-11.6-17.5"/>
	<path class="feather3" d="M268.6,499.8c-0.3-9.6-10.6-9.9-16.9-13.9"/>
	<path class="feather3" d="M268.7,498c-7.3,0.2-7.8-10.3-14.1-12.9"/>
	<path class="feather3" d="M267.8,499.5c-4-6.8-11.4-6.1-18.1-3.9"/>
	<path class="feather3" d="M267.7,499.9c-2.8-3.7-9.2-6.3-13-1.7"/>
	<path class="feather3" d="M268.2,498.2c-5.6-4.6-2.5-12.6-7.6-17.5"/>
	<path class="feather3" d="M267.5,500.3c-3.7-6.2-11.7-6.7-17.3-2.3"/>
	<path class="feather3" d="M269.9,499.8c6.1-2,10.2,7.1,16.4,8.8"/>
	<path class="feather3" d="M269.7,500.6c6.1-2,9.9,9.2,14.1,11.6"/>
	<path class="feather3" d="M270.3,501.2c5.7-6.2,14.6,2.3,21-5.9"/>
	<path class="feather3" d="M269.8,500.2c-6.3-4-5.6-12.7-11.5-16.6"/>
	<path class="feather3" d="M267.4,499.3c-3.2-10.6-9.1-10.3-18.4-13.5"/>
	<path class="feather3" d="M268.6,498.4c-6.8-7.8-10.1-10.2-20.6-9.7"/>
	<path class="feather3" d="M264.7,496.6c-4.4-3.8-10-6.1-15.9-6.3"/>
	<path class="feather3" d="M272.2,501c9.8-10.2,14.7,4.6,24.1-1.7"/>
	<path class="feather3" d="M271.5,499c5.3,0.4,14.9,10.5,20.1,6"/>
	<path class="feather3" d="M317.5,456.8c-0.1,0-0.1-0.1-0.1-0.1c0,0,0,0,0.1-0.1c3.6-0.6,7.1-2.7,10.1-4.9l0.1-0.1
		c0.7-2.2,1.3-4.3,1.9-6.5c-2.4,0.1-4.8-0.4-6.9-1.5c-0.1,0,0-0.2,0-0.2c1.3-0.3,2.5-0.7,3.7-1.3c1.4-0.7,2.8-1.4,4.1-2.2l0.4-0.3
		c0.4-1.7,0.8-3.4,1.1-5.2c-1.9-0.2-3.7-1-5.2-2.3c0,0-0.1-0.1,0-0.2c0,0,0,0,0,0c2.1-1.1,4-2.4,5.7-4c0.3-0.2,0.5-0.5,0.8-0.7
		c1.7-11.1,2.8-22.3,3.3-33.6c-2.1-0.6-4-1.5-5.8-2.7c0,0-0.1-0.1,0-0.1c0,0,0,0,0,0c1.9-1.4,4.1-2.5,6.1-3.7c0.1-3,0.3-6.1,0.4-9.1
		c-2.5,0.7-5.1,1.1-7.8,1.1c-0.1,0-0.1-0.2,0-0.2c2-0.7,3.8-1.7,5.4-3c0.9-0.7,1.8-1.6,2.6-2.4l0.1-1.6c0.2-5.3,0.3-10.6,0.2-15.9
		c-1.6,1.3-3.4,2.3-5.3,3.1c-0.1,0-0.2,0-0.2-0.1c3-7,4.1-14.7,3.4-22.3c-0.4-3.8-1.3-7.6-2.7-11.2c-0.8-2.1-4.2-7.5-2.5-9.6
		c-4.9,6.1-10.2,11.7-15.5,17.5c0.2,0.8,0.3,1.7,0.4,2.5c0.5,3.6,0.8,7.6-0.4,11.1c0,0.1,0,0.1-0.1,0.1s-0.1,0-0.1-0.1
		c-0.9-3.2-2.2-6.3-3.8-9.2c-4.5,5.2-8.7,10.6-12.6,16.2c2,4,4.4,8.1,2.5,12.5c0,0.1-0.2,0.1-0.2,0c-1.2-3.3-2.7-6.5-4.3-9.6
		c-2.5,3.7-4.8,7.5-7.1,11.4c-5.6,9.7-10.6,19.9-15.2,30.1c0.6,1.5,1.1,3,1.6,4.6c1.1,3.4,1.8,6.9,2.3,10.5c0,0.1,0,0.1-0.1,0.1
		c0,0-0.1,0-0.1,0c-1.1-2.3-2.2-4.7-3.5-7c-0.7-1.2-1.4-2.4-2.3-3.5c-3.6,8.1-7,16.2-10.5,24.3c-0.5,1.1-1,2.3-1.4,3.4
		c0.9,1.6,1.8,3.2,2.7,4.9c2.9,5.7,6.9,12,6.1,18.6c0,0.1-0.1,0.1-0.1,0.1c0,0,0,0-0.1,0c-4-3.9-8.3-7.3-13-10.2
		c-2.7,10.6-3.2,21.6,1.5,31.8c3.7,7.9,8.7,16.1,12.2,25.6l21.9-7.2c14.3-4.5,23.7-13.4,30.1-25.9c-2-0.7-3.8-1.7-5.5-3
		c0,0-0.1-0.1,0-0.2c0,0,0.1,0,0.1,0c2.6-0.1,5.2-0.7,7.7-1.6c0.3-0.8,0.7-1.6,1-2.4c0.3-0.8,0.7-1.9,1.1-2.9
		C322.7,458.6,320,458.4,317.5,456.8z"/>
	<path class="feather3" d="M256.7,520.1c10.3-11.8,16.4-29.6,22.2-43.9c8.7-21.4,18-43.5,25.4-65.3c4.3-12.7,9.4-25.3,12.5-38.4
		c1.7-6.9,6.6-25.9,9.2-33.5"/>
	<path class="feather2" d="M279.5,512.3c6.5-4.9,13.5,8.5,21.5,7.8"/>
	<path class="feather2" d="M278.4,511.5c7.4,1.3,7.3,11.7,14,14.1"/>
	<path class="feather2" d="M279.8,512.6c5.1-1.8,10.7,6.3,13.6,10"/>
	<path class="feather2" d="M279.8,510.5c3.7,4.2,4.1,6,4,10.9c0.1,3.7-1.8,6.8,0.8,10.2"/>
	<path class="feather2" d="M280,513c-0.5,5.7,1.7,10,4.4,14.9"/>
	<path class="feather2" d="M280.6,510.9c-7.3-6.8,2.4-13.1,0.1-21"/>
	<path class="feather2" d="M278.3,510c5.1-8.2-3.3-14.1-6.3-21"/>
	<path class="feather2" d="M279.4,508.6c-6.2-3.9-0.7-12.9-4.5-18.6"/>
	<path class="feather2" d="M277.8,509.3c0.5-7.9-6.1-11.5-12.8-13.3"/>
	<path class="feather2" d="M277.5,509.6c-0.3-4.6-4.1-10.3-9.8-8.6"/>
	<path class="feather2" d="M278.8,508.5c-2.1-7,4.9-11.8,3.4-18.7"/>
	<path class="feather2" d="M277.1,509.8c0.4-7.3-6-12.1-13.1-11.5"/>
	<path class="feather2" d="M279.4,510.8c6.2,1.7,4.5,11.6,8.8,16.4"/>
	<path class="feather2" d="M278.8,511.3c6.2,1.8,3.1,13.2,5.3,17.5"/>
	<path class="feather2" d="M278.9,512.2c8.2-2,10.9,10,20.7,6.8"/>
	<path class="feather2" d="M279.1,511c-3-6.8,2.5-13.7-0.3-20.1"/>
	<path class="feather2" d="M277.5,509c3.2-10.5-1.8-13.7-7.8-21.5"/>
	<path class="feather2" d="M279.1,508.9c-1.4-10.2-2.7-14.1-11.7-19.5"/>
	<path class="feather2" d="M276.8,505.2c-1.5-5.7-5-10.6-9.7-14.1"/>
	<path class="feather2" d="M280.7,513.1c13.8-3,9.7,12,20.9,12"/>
	<path class="feather2" d="M281.2,511c4.1,3.3,6.5,17,13.4,16.1"/>
	<path class="feather2" d="M342.9,501.5c0-0.1,0.1-0.2,0.1-0.1c3.4,1.5,7.4,1.7,11.1,1.6h0.1c1.8-1.4,3.5-2.9,5.2-4.4
		c-2-1.2-3.7-3-4.9-5.1c0-0.1,0.1-0.2,0.1-0.1c1.2,0.5,2.5,0.8,3.8,1c1.5,0.2,3.1,0.4,4.7,0.4h0.5c1.3-1.2,2.6-2.4,3.8-3.7
		c-1.5-1.3-2.5-2.9-3.1-4.8c0-0.1,0-0.1,0-0.1c0,0,0,0,0.1,0c2.3,0.2,4.7,0.2,7-0.1l1-0.2c7.6-8.3,14.8-17,21.5-26
		c-1.4-1.6-2.5-3.5-3.3-5.5c0-0.1,0-0.1,0.1-0.1c0,0,0,0,0,0c2.4,0,4.8,0.2,7.2,0.3c1.8-2.5,3.6-4.9,5.4-7.4c-2.5-0.8-4.9-2-7-3.4
		c0,0,0-0.1,0-0.2c0,0,0,0,0.1,0c2,0.5,4.1,0.7,6.2,0.5c1.2-0.1,2.4-0.3,3.5-0.6l0.9-1.3c3.1-4.3,6.1-8.6,9-13.1
		c-2.1,0.2-4.1,0-6.2-0.4c-0.1,0-0.1-0.1,0-0.2c6.4-4.2,11.6-9.9,15.2-16.6c1.8-3.4,3.1-7.1,4-10.9c0.5-2.2,0.7-8.5,3.3-9.4
		c-7.4,2.4-15,4.1-22.6,5.9c-0.3,0.8-0.7,1.5-1.1,2.3c-1.6,3.3-3.6,6.8-6.6,9c-0.1,0.1-0.2,0-0.2-0.1c1.1-3.1,1.7-6.4,1.9-9.7
		c-6.6,1.8-13.1,4-19.5,6.5c-0.5,4.4-0.9,9.2-4.9,11.8c-0.1,0-0.2,0-0.2-0.1c0.8-3.4,1.4-6.9,1.8-10.3c-4.1,1.7-8.2,3.6-12.2,5.5
		c-10.1,5-19.9,10.6-29.5,16.5c-0.3,1.6-0.7,3.1-1.2,4.7c-1,3.4-2.3,6.8-3.9,10c0,0-0.1,0.1-0.2,0c0,0,0-0.1,0-0.1
		c0.4-2.6,0.8-5.1,1-7.8c0.1-1.4,0.1-2.8,0-4.2c-7.5,4.7-14.9,9.6-22.3,14.4c-1,0.7-2.1,1.4-3.1,2.1c-0.2,1.8-0.3,3.7-0.5,5.5
		c-0.8,6.3-0.9,13.8-5.3,18.9c0,0.1-0.1,0.1-0.2,0c0,0,0,0,0,0c-1.1-5.4-2.9-10.7-5.1-15.8c-8.1,7.3-14.7,16.1-16.4,27.2
		c-1.4,8.6-1.7,18.2-4.2,28.1l22.2,6.2c14.4,4.2,27.1,2,39.4-4.8c-1.2-1.7-2.2-3.6-2.9-5.6c0-0.1,0-0.1,0.1-0.1c0,0,0.1,0,0.1,0
		c2.3,1.3,4.7,2.3,7.3,2.9c0.7-0.5,1.5-1,2.2-1.5c0.7-0.5,1.7-1.2,2.5-1.8C346.2,506.1,344.1,504.1,342.9,501.5z"/>
	<path class="feather2" d="M257.1,520.2c15.2-4,30.1-15.5,42.9-24.1c19.1-13,39.2-26.1,57.5-40.1c10.7-8.1,21.9-15.8,31.8-24.9
		c5.2-4.8,19.9-17.8,26.3-22.7"/>
	<path class="feather3" d="M280.4,526.5c8.1-0.5,6.5,14.6,13.5,18.4"/>
	<path class="feather3" d="M279.9,525.2c5.5,5.2-0.4,13.7,3.8,19.5"/>
	<path class="feather3" d="M280.5,526.9c5.2,1.4,5.4,11.2,5.7,15.9"/>
	<path class="feather3" d="M281.6,525.2c0.8,5.5,0,7.3-2.7,11.3c-2,3.1-5.3,4.6-5,8.9"/>
	<path class="feather3" d="M280.5,527.4c-3.6,4.5-4.1,9.2-4.7,14.8"/>
	<path class="feather3" d="M282.1,526c-2.3-9.7,9.2-9.5,11.8-17.4"/>
	<path class="feather3" d="M280.7,523.9c8.7-4,5.2-13.6,6.4-20.9"/>
	<path class="feather3" d="M282.4,523.4c-3-6.7,6.6-11.1,6.6-18"/>
	<path class="feather3" d="M280.7,523.1c4.7-6.3,1.3-12.9-3.3-18.2"/>
	<path class="feather3" d="M280.2,523.1c2.3-4,2.3-10.8-3.3-12.6"/>
	<path class="feather3" d="M281.9,523c2.1-7,10.7-7.1,13.3-13.7"/>
	<path class="feather3" d="M279.8,523.1c4.3-5.8,1.8-13.4-4.5-16.8"/>
	<path class="feather3" d="M281.2,525.2c4.2,4.9-2.7,12.2-1.9,18.5"/>
	<path class="feather3" d="M280.4,525.2c4.1,4.9-4.8,12.7-5.4,17.5"/>
	<path class="feather3" d="M280,526.1c7.9,2.9,3.4,14.3,13.5,17.2"/>
	<path class="feather3" d="M280.8,525.2c1.3-7.3,9.6-10,10.9-16.9"/>
	<path class="feather3" d="M280.6,522.6c8.6-6.9,6.1-12.4,5.5-22.2"/>
	<path class="feather3" d="M282,523.4c4.6-9.3,5.6-13.2,1.2-22.8"/>
	<path class="feather3" d="M282.1,519.1c1.9-5.6,1.8-11.6-0.2-17.1"/>
	<path class="feather3" d="M280.9,527.8c13.2,5.2,1.4,15.3,10.7,21.6"/>
	<path class="feather3" d="M282.5,526.4c1.6,5-4,17.8,2.1,20.8"/>
	<path class="feather3" d="M339.1,552.8c0-0.1,0.1-0.1,0.2,0c0,0,0,0,0,0c2,3.1,5.2,5.5,8.3,7.5l0.1,0.1c2.3-0.2,4.5-0.5,6.7-0.8
		c-1-2.2-1.4-4.6-1.3-7c0-0.1,0.2-0.1,0.2,0c0.7,1.1,1.6,2,2.6,2.9c1.1,1.1,2.4,2.1,3.6,3l0.4,0.3c1.7-0.3,3.5-0.6,5.2-1
		c-0.5-1.9-0.5-3.8,0.1-5.7c0-0.1,0.1-0.1,0.1-0.1c0,0,0,0,0,0c1.8,1.5,3.8,2.8,5.9,3.8c0.3,0.2,0.6,0.3,1,0.4
		c10.9-2.7,21.7-5.9,32.3-9.7c-0.2-2.1-0.2-4.3,0.3-6.4c0-0.1,0.1-0.1,0.1-0.1c0,0,0,0,0,0c2,1.3,3.8,2.8,5.8,4.3
		c2.9-1,5.7-2.1,8.6-3.1c-1.6-2.1-3-4.3-4-6.8c0-0.1,0.1-0.2,0.2-0.1c1.4,1.6,3,2.9,4.8,3.9c1,0.6,2.1,1.1,3.2,1.5l1.5-0.5
		c5-1.8,9.9-3.8,14.8-5.9c-1.8-1-3.5-2.3-4.9-3.8c0-0.1,0-0.2,0.1-0.2c7.6,0.1,15.1-1.8,21.9-5.3c3.4-1.9,6.5-4.1,9.3-6.8
		c1.7-1.6,5.3-6.7,8-6c-7.5-2.2-14.7-5-22-7.7c-0.7,0.5-1.4,0.9-2.2,1.3c-3.2,1.8-6.8,3.6-10.5,3.9c-0.1,0-0.1,0-0.1-0.1
		c0,0,0-0.1,0-0.1c2.6-2,5-4.4,7-7c-6.5-2.2-13.1-4-19.8-5.5c-2.9,3.3-5.8,7.1-10.6,7c-0.1,0-0.2-0.1-0.1-0.2c2.6-2.4,5-4.9,7.2-7.6
		c-4.4-0.9-8.8-1.6-13.2-2.2c-11.2-1.5-22.4-2.2-33.7-2.6c-1.2,1.1-2.4,2.2-3.6,3.2c-2.8,2.3-5.7,4.3-8.8,6.1c-0.1,0-0.1,0-0.1,0
		c0,0,0-0.1,0-0.1c1.7-1.9,3.5-3.8,5.2-5.9c0.9-1.1,1.7-2.3,2.3-3.5c-8.9-0.2-17.7-0.3-26.5-0.5c-1.2,0-2.5,0-3.7,0
		c-1.2,1.4-2.3,2.9-3.5,4.3c-4.2,4.8-8.4,11-14.9,12.7c-0.1,0-0.1,0-0.1-0.1c0,0,0-0.1,0-0.1c2.1-5.2,3.6-10.5,4.5-16
		c-10.8,1.5-21.2,5.2-28.8,13.5c-5.9,6.4-11.6,14.1-19.1,21l14.9,17.5c9.6,11.5,21.4,16.8,35.4,18c-0.1-2.1,0.2-4.2,0.7-6.2
		c0-0.1,0-0.1,0.1-0.1s0.1,0,0.1,0.1c1.1,2.4,2.6,4.5,4.4,6.5c0.9,0,1.8,0,2.6,0s2,0,3-0.1C339.4,558.3,338.5,555.7,339.1,552.8z"/>
	<path class="feather3" d="M257.4,520.6c14.9,5.1,33.6,3.9,49,3.8c23.1-0.1,47.1,0.1,70.1-1.3c13.4-0.8,27-0.9,40.2-3
		c7-1.1,26.5-3.7,34.5-4.2"/>
	<path class="feather2" d="M273.3,538.8c7,4.1-2.8,15.7,1,22.8"/>
	<path class="feather2" d="M273.5,537.5c1.6,7.4-8,11.2-7.7,18.3"/>
	<path class="feather2" d="M273,539.2c3.6,4.1-1.8,12.3-4.1,16.4"/>
	<path class="feather2" d="M275,538.4c-2.4,5-4,6-8.5,7.9c-3.3,1.5-7,0.9-9.1,4.6"/>
	<path class="feather2" d="M272.8,539.5c-5.5,1.8-8.6,5.4-12.1,9.7"/>
	<path class="feather2" d="M275,539.3c3.5-9.3,13-2.8,19.5-7.9"/>
	<path class="feather2" d="M274.9,536.8c9.5,1.6,11.8-8.4,17-13.8"/>
	<path class="feather2" d="M276.6,537.3c1.2-7.2,11.7-5.5,15.5-11.2"/>
	<path class="feather2" d="M275.4,536.1c7.5-2.6,8.3-10,7.4-16.9"/>
	<path class="feather2" d="M275,535.9c4.2-2,8-7.7,4.2-12.4"/>
	<path class="feather2" d="M276.5,536.7c5.7-4.6,12.8,0.1,18.6-4"/>
	<path class="feather2" d="M274.6,535.6c6.9-2.4,8.9-10.1,5.7-16.5"/>
	<path class="feather2" d="M274.6,538.1c0.7,6.4-9,8.6-11.9,14.3"/>
	<path class="feather2" d="M273.9,537.7c0.7,6.4-11,7.9-14.2,11.5"/>
	<path class="feather2" d="M273.1,538.2c4.9,6.8-5.1,13.8,1.6,21.7"/>
	<path class="feather2" d="M274.3,537.9c5.1-5.4,13.6-2.9,18.5-8"/>
	<path class="feather2" d="M275.5,535.7c11-1,11.9-6.9,16.9-15.3"/>
	<path class="feather2" d="M276.2,537.1c9-5.2,12-7.8,13.6-18.2"/>
	<path class="feather2" d="M278.8,533.6c4.6-3.6,7.9-8.6,9.4-14.3"/>
	<path class="feather2" d="M273,540.1c8,11.6-7.4,13.5-3.1,23.9"/>
	<path class="feather2" d="M275.1,539.9c-1.5,5.1-13.3,12.5-9.8,18.5"/>
	<path class="feather2" d="M307.3,593.3c0,0,0.1-0.1,0.1,0c0,0,0,0.1,0,0.1c-0.1,3.7,1.2,7.5,2.8,10.8c0,0,0,0.1,0,0.1c2,1.1,4,2.1,6,3.1
		c0.4-2.4,1.3-4.6,2.8-6.5c0.1-0.1,0.2,0,0.2,0.1c0,1.3,0.2,2.6,0.5,3.8c0.4,1.5,0.8,3,1.4,4.5l0.2,0.5c1.6,0.7,3.2,1.4,4.9,2.1
		c0.6-1.8,1.7-3.5,3.3-4.7c0,0,0.1-0.1,0.2,0c0,0,0,0,0,0c0.7,2.2,1.6,4.4,2.8,6.4c0.2,0.3,0.4,0.6,0.6,0.9
		c10.6,3.9,21.3,7.2,32.2,10c1-1.9,2.3-3.7,3.8-5.2c0,0,0.1-0.1,0.1,0c0,0,0,0,0,0c1,2.2,1.6,4.5,2.4,6.8c3,0.7,5.9,1.5,8.9,2.2
		c-0.2-2.6,0-5.3,0.5-7.8c0-0.1,0.2-0.1,0.2,0c0.3,2.1,0.9,4,1.9,5.9c0.5,1.1,1.2,2.1,1.9,3l1.5,0.4c5.2,1.2,10.3,2.4,15.5,3.3
		c-0.9-1.8-1.6-3.8-2-5.9c0-0.1,0.1-0.2,0.2-0.1c9.5,6.6,21.3,9.3,32.7,7.3c2.3-0.4,8.2-2.6,10-0.5c-5-6-9.5-12.3-14-18.6
		c-0.9,0-1.7,0-2.5-0.1c-3.7-0.2-7.6-0.8-10.9-2.6c-0.1,0-0.1-0.1,0-0.2c0,0,0,0,0.1,0c3.3-0.2,6.6-0.9,9.7-1.9
		c-4.2-5.4-8.6-10.6-13.4-15.5c-4.3,1.2-8.8,2.7-12.7-0.1c-0.1,0-0.1-0.2,0-0.2c3.5-0.6,6.9-1.3,10.2-2.3c-3.2-3.2-6.4-6.2-9.8-9.2
		c-8.4-7.5-17.4-14.3-26.5-21c-1.6,0.3-3.2,0.5-4.8,0.7c-3.6,0.4-7.2,0.4-10.7,0.2c-0.1,0-0.1-0.1-0.1-0.1c0,0,0-0.1,0.1-0.1
		c2.5-0.7,5.1-1.2,7.5-2c1.3-0.4,2.6-0.9,3.9-1.6c-7.2-5.1-14.5-10.1-21.8-15.1c-1-0.7-2-1.4-3.1-2.1c-1.8,0.5-3.5,1.2-5.3,1.6
		c-6.2,1.7-13.1,4.4-19.5,2.3c-0.1,0-0.1-0.1-0.1-0.1c0,0,0,0,0.1-0.1c4.6-3.1,8.8-6.7,12.6-10.7c-9.8-4.8-20.5-7.4-31.4-4.8
		c-8.5,2-17.5,5.3-27.5,6.8l2.7,22.8c1.6,14.9,8.4,25.9,19.4,34.7c1.1-1.8,2.5-3.4,4.1-4.8c0,0,0.1,0,0.1,0c0,0,0,0.1,0,0.1
		c-0.4,2.6-0.4,5.2,0,7.8c0.7,0.5,1.5,1,2.2,1.5s1.7,1.1,2.6,1.6C304.5,598.1,305.2,595.4,307.3,593.3z"/>
	<path class="feather2" d="M257.4,521.1c9.5,12.5,25.8,22,38.6,30.5c19.3,12.7,39,26.3,59,37.9c11.6,6.8,22.9,14.2,35.1,19.9
		c6.4,3,24.1,11.6,31,15.7"/>
	<path class="feather3" d="M260.5,545c3.5,7.3-11,11.5-11.9,19.5"/>
	<path class="feather3" d="M261.4,544.1c-2.8,7-12.9,4.8-16.6,10.9"/>
	<path class="feather3" d="M260.1,545.2c0.7,5.4-8.3,9.3-12.6,11.3"/>
	<path class="feather3" d="M262.2,545.6c-4.8,2.8-6.7,2.8-11.5,1.8c-3.6-0.6-6.3-3.1-10.1-1.3"/>
	<path class="feather3" d="M259.7,545.4c-5.5-1.6-10.1-0.3-15.5,1.3"/>
	<path class="feather3" d="M261.6,546.4c8.1-5.8,12.3,4.9,20.6,4.3"/>
	<path class="feather3" d="M263,544.3c7,6.6,14.5-0.4,21.8-2"/>
	<path class="feather3" d="M264.1,545.7c5-5.3,12.8,1.9,19.1-0.7"/>
	<path class="feather3" d="M263.7,543.9c7.6,2,12.5-3.7,15.6-9.9"/>
	<path class="feather3" d="M263.5,543.6c4.6,0.6,10.9-2,10.4-7.9"/>
	<path class="feather3" d="M264.3,545.1c7.3-0.7,10.6,7.2,17.7,7.1"/>
	<path class="feather3" d="M263.4,543.2c7,1.8,13-3.5,13.9-10.5"/>
	<path class="feather3" d="M262,545.2c-2.9,5.7-12.3,2.1-17.8,5.3"/>
	<path class="feather3" d="M261.6,544.5c-2.9,5.7-13.6,0.4-18.2,1.7"/>
	<path class="feather3" d="M260.7,544.5c0.3,8.4-12,8.6-10.7,19"/>
	<path class="feather3" d="M261.8,544.9c7.3-1.6,12.9,5.1,19.8,3.7"/>
	<path class="feather3" d="M264.1,543.8c9.7,5.3,13.7,0.9,22.6-3.4"/>
	<path class="feather3" d="M263.9,545.3c10.3,0.7,14.3,0.2,21.5-7.6"/>
	<path class="feather3" d="M267.9,543.8c5.9-0.4,11.4-2.7,15.8-6.7"/>
	<path class="feather3" d="M259.5,546c0.2,14.1-13.7,7.1-15.9,18.2"/>
	<path class="feather3" d="M261.4,547c-4.1,3.4-18,3-18.5,9.9"/>
	<path class="feather3" d="M258.4,609.3c0.1,0,0.1,0,0.1,0.1c0,0,0,0.1,0,0.1c-2.1,3-3.1,6.9-3.7,10.5c0,0,0,0.1,0,0.1c1,2,2.1,4,3.3,6
		c1.6-1.8,3.7-3.1,5.9-3.8c0.1,0,0.2,0.1,0.1,0.2c-0.7,1.1-1.3,2.3-1.7,3.5c-0.6,1.5-1,3-1.4,4.5c0,0.2-0.1,0.3-0.1,0.5
		c0.9,1.5,1.9,3,2.9,4.5c1.5-1.2,3.4-1.9,5.3-2.1c0.1,0,0.1,0,0.1,0.1c0,0,0,0,0,0c-0.7,2.2-1.1,4.5-1.3,6.9c0,0.3,0,0.7,0,1
		c6.6,9.1,13.7,17.9,21.2,26.2c1.9-1,3.9-1.8,6-2.2c0.1,0,0.1,0,0.1,0.1c0,0,0,0,0,0c-0.4,2.3-1.2,4.6-1.8,7
		c2.1,2.3,4.1,4.5,6.2,6.8c1.3-2.3,2.9-4.4,4.8-6.2c0,0,0.1,0,0.2,0c0,0,0,0.1,0,0.1c-0.9,1.9-1.5,3.9-1.7,5.9
		c-0.1,1.2-0.2,2.4-0.1,3.5c0.3,0.4,0.7,0.8,1.1,1.2c3.6,3.9,7.2,7.8,11,11.4c0.2-2.1,0.8-4.1,1.6-6c0-0.1,0.2-0.1,0.2,0
		c2.8,7.1,7.4,13.3,13.3,18.2c3,2.4,6.3,4.5,9.8,6c2.1,1,8.2,2.4,8.5,5.1c-0.8-7.7-1-15.5-1.3-23.3c-0.7-0.5-1.4-1-2-1.5
		c-2.9-2.2-5.9-4.9-7.5-8.2c0-0.1,0-0.1,0-0.1c0,0,0.1,0,0.1,0c2.9,1.7,6,2.9,9.2,3.8c-0.4-6.8-1.3-13.6-2.5-20.4
		c-4.2-1.4-8.8-2.7-10.5-7.2c0-0.1,0-0.2,0.1-0.2c3.2,1.4,6.4,2.7,9.8,3.8c-0.9-4.4-1.9-8.8-3-13.1c-2.9-10.9-6.5-21.6-10.4-32.2
		c-1.5-0.7-2.9-1.4-4.4-2.1c-3.2-1.7-6.2-3.6-9-5.8c0,0,0-0.1,0-0.2c0,0,0.1,0,0.1,0c2.5,0.9,4.9,1.8,7.4,2.5
		c1.3,0.4,2.7,0.7,4.1,0.8c-3.1-8.3-6.4-16.5-9.7-24.7c-0.5-1.1-0.9-2.3-1.4-3.4c-1.8-0.6-3.6-1-5.3-1.6c-6-2-13.3-3.6-17.5-9
		c0,0,0-0.1,0-0.2c0,0,0,0,0.1,0c5.5,0,11.1-0.7,16.5-1.9c-5.5-9.4-12.9-17.6-23.4-21.5c-8.2-3-17.5-5.3-26.7-9.7l-10.5,20.5
		c-6.9,13.3-7.4,26.2-3.1,39.6c1.9-0.9,3.9-1.5,6-1.7c0.1,0,0.1,0,0.1,0.1c0,0,0,0.1,0,0.1c-1.8,1.9-3.2,4.1-4.3,6.5
		c0.3,0.8,0.7,1.6,1,2.4s0.8,1.8,1.2,2.8C253.5,611.7,255.5,609.9,258.4,609.3z"/>
	<path class="feather3" d="M257.1,521.5c1,15.7,9.2,32.6,15.1,46.8c8.9,21.3,17.8,43.6,27.9,64.3c5.9,12.1,11.1,24.6,18.1,36.1
		c3.7,6.1,13.5,23,17,30.2"/>
	<path class="feather2" d="M246.4,543.1c-1.1,8-15.6,3.4-20.8,9.6"/>
	<path class="feather2" d="M247.7,542.8c-6.2,4.3-13.4-3.2-19.8-0.2"/>
	<path class="feather2" d="M245.9,543c-2.4,4.8-12.1,3.1-16.7,2.4"/>
	<path class="feather2" d="M247.4,544.5c-5.6-0.3-7.1-1.4-10.5-4.9c-2.7-2.5-3.5-6.1-7.7-6.7"/>
	<path class="feather2" d="M245.5,543c-3.7-4.4-8.2-5.9-13.6-7.5"/>
	<path class="feather2" d="M246.5,544.8c10-0.3,7.5,11,14.7,15"/>
	<path class="feather2" d="M248.8,543.9c2.1,9.3,12.3,7.8,19.2,10.5"/>
	<path class="feather2" d="M249,545.6c7.1-1.6,9.6,8.7,16.3,10"/>
	<path class="feather2" d="M249.7,544c5.2,5.9,12.4,3.9,18.5,0.4"/>
	<path class="feather2" d="M249.7,543.6c3.4,3.1,10.2,4.4,13-0.8"/>
	<path class="feather2" d="M249.5,545.2c6.4,3.5,4.8,11.9,10.7,15.7"/>
	<path class="feather2" d="M249.8,543.1c4.8,5.4,12.8,4.4,17.4-1"/>
	<path class="feather2" d="M247.5,544.1c-5.6,3.1-11.4-5-17.8-5.5"/>
	<path class="feather2" d="M247.6,543.3c-5.6,3.1-11.5-7.2-16-8.7"/>
	<path class="feather2" d="M246.8,542.7c-4.4,7.2-14.7,0.5-19.5,9.8"/>
	<path class="feather2" d="M247.5,543.7c7,2.7,7.9,11.5,14.4,14.1"/>
	<path class="feather2" d="M250.1,544c5.1,9.8,10.9,8.4,20.6,9.8"/>
	<path class="feather2" d="M249.1,545.2c8.2,6.3,11.8,8.1,22.1,5.7"/>
	<path class="feather2" d="M253.3,546.2c5.1,2.9,11,4.1,16.8,3.2"/>
	<path class="feather2" d="M245,543.3c-7.7,11.9-15.3-1.7-23.3,6.2"/>
	<path class="feather2" d="M246.1,545.2c-5.3,0.6-16.6-7.5-20.9-2"/>
	<path class="feather2" d="M208.9,595.3c0.1,0,0.1,0.1,0.1,0.1c0,0,0,0-0.1,0.1c-3.5,1.3-6.5,4-9,6.7c0,0-0.1,0.1-0.1,0.1
		c-0.2,2.3-0.4,4.5-0.6,6.8c2.3-0.6,4.8-0.5,7.1,0.1c0.1,0,0.1,0.2,0,0.2c-1.2,0.5-2.3,1.2-3.4,1.9c-1.3,0.9-2.5,1.9-3.6,3l-0.4,0.3
		c-0.1,1.8-0.1,3.5-0.1,5.3c1.9-0.1,3.9,0.3,5.6,1.2c0,0,0.1,0.1,0,0.1c0,0,0,0,0,0c-1.8,1.5-3.5,3.1-4.9,5
		c-0.2,0.3-0.4,0.6-0.6,0.9c0.4,11.2,1.4,22.5,3,33.6c2.1,0.2,4.2,0.7,6.2,1.5c0,0,0,0.1,0,0.2c0,0,0,0,0,0
		c-1.7,1.7-3.6,3.2-5.3,4.8c0.4,3,0.9,6,1.4,9c2.3-1.2,4.8-2,7.4-2.5c0.1,0,0.2,0.1,0.1,0.2c-1.8,1.1-3.4,2.4-4.7,4
		c-0.8,0.9-1.5,1.9-2.1,2.9c0.1,0.5,0.2,1,0.2,1.5c0.8,5.2,1.7,10.5,2.8,15.7c1.3-1.6,2.9-2.9,4.7-4c0.1,0,0.2,0,0.2,0.1
		c-2.5,11.3-0.5,23.2,5.7,33c1.2,1.9,5.5,6.6,4.2,9c3.6-6.9,7.8-13.5,11.9-20.1c-0.3-0.8-0.6-1.6-0.9-2.4c-1.2-3.5-2.2-7.3-1.7-11
		c0-0.1,0.1-0.1,0.1-0.1c0,0,0.1,0,0.1,0.1c1.5,3,3.3,5.8,5.5,8.3c3.4-5.9,6.5-12,9.3-18.3c-2.7-3.5-5.8-7.1-4.8-11.8
		c0-0.1,0.1-0.1,0.2,0c0,0,0,0,0,0c1.8,3,3.8,5.9,6,8.6c1.7-4.1,3.3-8.3,4.8-12.5c3.7-10.6,6.6-21.5,9.3-32.5
		c-0.9-1.3-1.7-2.8-2.4-4.2c-1.7-3.2-3.1-6.5-4.3-9.8c0-0.1,0-0.1,0.1-0.1c0,0,0.1,0,0.1,0c1.6,2.1,3,4.2,4.7,6.2
		c0.9,1.1,1.9,2.1,3,3c2-8.6,3.8-17.3,5.7-25.9c0.3-1.2,0.5-2.4,0.8-3.6c-1.1-1.5-2.4-2.8-3.5-4.3c-3.9-5.1-9.1-10.4-9.5-17.1
		c0-0.1,0-0.1,0.1-0.1c0,0,0,0,0.1,0c4.6,3.1,9.6,5.6,14.7,7.6c0.7-10.9-0.9-21.8-7.5-30.9c-5.1-7.1-11.6-14.2-16.8-22.9l-20.1,11.2
		c-13.2,7.2-20.7,17.6-24.7,31.2c2.1,0.3,4.1,1,6,2c0.1,0,0.1,0.1,0.1,0.1c0,0,0,0.1-0.1,0.1c-2.5,0.6-5,1.6-7.2,3
		c-0.2,0.9-0.3,1.7-0.5,2.6c-0.2,1-0.3,2-0.5,3C203.4,594.5,206.2,594.2,208.9,595.3z"/>
	<path class="feather2" d="M256.7,521.7c-7.9,13.6-10.5,32.2-13.5,47.3c-4.5,22.7-9.5,46.1-12.7,69c-1.9,13.3-4.4,26.6-5.1,40
		c-0.3,7.1-1.6,26.7-2.7,34.6"/>
	<path class="feather2" d="M235.7,533.6c-5.4,6-14.9-5.8-22.6-3.6"/>
	<path class="feather2" d="M237,534.2c-7.6,0.1-9.3-10.1-16.4-11.2"/>
	<path class="feather2" d="M235.4,533.3c-4.7,2.7-11.7-4.2-15.2-7.3"/>
	<path class="feather2" d="M235.8,535.4c-4.4-3.4-5.1-5.2-6-9.9c-0.8-3.6,0.5-7-2.7-9.8"/>
	<path class="feather2" d="M235.1,533.1c-0.6-5.7-3.6-9.5-7.1-13.8"/>
	<path class="feather2" d="M234.9,535.2c8.5,5.3,0.1,13.3,3.9,20.7"/>
	<path class="feather2" d="M237.4,535.6c-3.4,9,5.9,13.3,10.2,19.4"/>
	<path class="feather2" d="M236.5,537.2c6.8,2.6,3.1,12.5,7.9,17.4"/>
	<path class="feather2" d="M238,536.2c1.1,7.8,8.1,10.1,15.1,10.6"/>
	<path class="feather2" d="M238.3,535.9c1.2,4.5,6,9.3,11.3,6.6"/>
	<path class="feather2" d="M237.1,537.2c3.4,6.5-2.6,12.5,0.2,19"/>
	<path class="feather2" d="M238.5,535.6c1,7.2,8.2,10.7,15,8.8"/>
	<path class="feather2" d="M236.1,535.1c-6.4-0.5-6.6-10.5-11.7-14.5"/>
	<path class="feather2" d="M236.7,534.5c-6.4-0.5-5.5-12.4-8.5-16.2"/>
	<path class="feather2" d="M236.3,533.6c-7.7,3.5-12.5-7.8-21.6-2.7"/>
	<path class="feather2" d="M236.4,534.8c4.3,6.1,0.2,13.9,4.1,19.7"/>
	<path class="feather2" d="M238.3,536.5c-1.2,11,4.4,13.1,11.7,19.6"/>
	<path class="feather2" d="M236.8,536.9c3.3,9.8,5.3,13.3,15.2,17"/>
	<path class="feather2" d="M239.7,540.1c2.6,5.3,6.9,9.5,12.2,12"/>
	<path class="feather2" d="M234.5,533.1c-13,5.6-11.8-9.9-22.8-7.8"/>
	<path class="feather2" d="M234.3,535.2c-4.7-2.5-9.6-15.5-16.2-13.3"/>
	<path class="feather2" d="M175.5,556.2c0,0.1,0,0.1,0,0.1c0,0,0,0-0.1,0c-3.6-0.8-7.6-0.3-11.2,0.6h-0.1c-1.5,1.7-2.9,3.5-4.3,5.3
		c2.2,0.8,4.2,2.2,5.8,4c0.1,0.1,0,0.2-0.1,0.2c-1.3-0.2-2.6-0.3-3.9-0.2c-1.6,0-3.1,0.2-4.7,0.5l-0.5,0.1c-1,1.4-2,2.9-3,4.3
		c1.7,1,3,2.4,3.9,4.1c0,0,0,0.1,0,0.1c0,0,0,0-0.1,0c-2.3,0.2-4.6,0.7-6.8,1.4c-0.3,0.1-0.7,0.2-1,0.4
		c-5.9,9.6-11.3,19.5-16.2,29.6c1.7,1.3,3.1,2.9,4.3,4.7c0,0,0,0.2-0.1,0.2c-2.3,0.5-4.7,0.7-7.1,1c-1.3,2.8-2.6,5.5-3.9,8.3
		c2.6,0.3,5.2,1,7.6,2c0.1,0,0.1,0.2,0,0.2c-2.1-0.1-4.2,0.1-6.1,0.7c-1.1,0.3-2.3,0.7-3.3,1.2l-0.7,1.4c-2.2,4.8-4.4,9.6-6.4,14.6
		c2-0.6,4.1-0.8,6.1-0.7c0.1,0,0.2,0.1,0.1,0.2c-5.5,5.3-9.5,11.9-11.8,19.2c-1.1,3.7-1.7,7.5-1.8,11.4c-0.1,2.3,0.9,8.5-1.5,9.9
		c6.8-3.7,14-6.8,21.1-10.1c0.2-0.8,0.4-1.7,0.6-2.5c1-3.5,2.3-7.3,4.7-10.1c0,0,0.1,0,0.2,0c0,0,0,0.1,0,0.1
		c-0.4,3.3-0.5,6.6-0.1,9.9c6.2-3,12.1-6.3,17.9-10c-0.3-4.4-0.8-9.2,2.6-12.5c0.1-0.1,0.2,0,0.2,0.1c-0.1,3.5-0.1,7,0.2,10.5
		c3.7-2.5,7.4-5.1,10.9-7.7c9-6.8,17.5-14.2,25.8-21.8c0-1.6,0.1-3.2,0.3-4.8c0.4-3.6,1-7.1,1.9-10.6c0-0.1,0.2-0.1,0.2,0
		c0.1,2.6,0.2,5.2,0.5,7.8c0.1,1.4,0.4,2.8,0.8,4.1c6.5-6,12.8-12.2,19.2-18.3c0.9-0.9,1.8-1.7,2.7-2.6c-0.1-1.8-0.4-3.7-0.6-5.5
		c-0.4-6.4-1.7-13.7,1.6-19.5c0-0.1,0.1-0.1,0.1-0.1c0,0,0.1,0,0.1,0.1c2.1,5.1,4.8,10,8,14.5c6.6-8.7,11.4-18.6,11-29.8
		c-0.3-8.7-1.7-18.2-1.2-28.3l-23-1.8c-14.9-1.4-27.1,3.1-37.8,12.2c1.5,1.4,2.8,3.1,3.8,4.9c0,0.1,0,0.1-0.1,0.1c0,0-0.1,0-0.1,0
		c-2.5-0.9-5.1-1.4-7.7-1.5c-0.6,0.6-1.2,1.2-1.9,1.9c-0.7,0.7-1.4,1.5-2.1,2.2C171.4,552.5,173.9,553.7,175.5,556.2z"/>
	<path class="feather2" d="M256.2,521.6c-14.1,6.8-26.7,20.9-37.5,31.8c-16.3,16.3-33.5,33-48.9,50.2c-8.9,10-18.5,19.6-26.5,30.5
		c-4.2,5.7-16.2,21.3-21.5,27.2"/>
	<path class="feather3" d="M232.2,519.8c-7.9,2-9.1-13.1-16.8-15.5"/>
	<path class="feather3" d="M232.9,521c-6.3-4.1-2.1-13.5-7.4-18.4"/>
	<path class="feather3" d="M232.1,519.4c-5.4-0.4-7.4-10-8.6-14.5"/>
	<path class="feather3" d="M231.2,521.4c-1.8-5.3-1.4-7.1,0.6-11.6c1.3-3.4,4.3-5.5,3.2-9.7"/>
	<path class="feather3" d="M232,519c2.7-5.1,2.3-9.9,1.8-15.5"/>
	<path class="feather3" d="M230.6,520.7c4.1,9.1-7.3,11.1-8.3,19.3"/>
	<path class="feather3" d="M232.4,522.4c-7.8,5.5-2.5,14.3-2.4,21.8"/>
	<path class="feather3" d="M230.8,523.2c4.2,6-4.4,12.1-3.1,18.9"/>
	<path class="feather3" d="M232.6,523.2c-3.5,7.1,1.1,12.9,6.6,17.2"/>
	<path class="feather3" d="M233,523.1c-1.5,4.4-0.2,11.1,5.7,11.8"/>
	<path class="feather3" d="M231.4,523.6c-0.8,7.3-9.2,9-10.5,15.9"/>
	<path class="feather3" d="M233.4,523c-3.2,6.5,0.8,13.5,7.6,15.7"/>
	<path class="feather3" d="M231.7,521.3c-5-4,0.3-12.4-1.7-18.5"/>
	<path class="feather3" d="M232.5,521.1c-5-4,2.3-13.4,2-18.1"/>
	<path class="feather3" d="M232.7,520.1c-8.3-1.4-6.1-13.4-16.5-14.3"/>
	<path class="feather3" d="M232.1,521.2c0.2,7.5-7.6,11.7-7.5,18.7"/>
	<path class="feather3" d="M232.7,523.7c-7.1,8.4-3.6,13.3-1.2,22.8"/>
	<path class="feather3" d="M231.3,523.2c-2.7,10-3,14,3.1,22.6"/>
	<path class="feather3" d="M231.9,527.4c-0.8,5.8,0.4,11.7,3.4,16.8"/>
	<path class="feather3" d="M231.4,518.7c-13.9-2.6-4.2-14.8-14.6-19.2"/>
	<path class="feather3" d="M230.1,520.4c-2.5-4.7,0.6-18.2-6-20.1"/>
	<path class="feather3" d="M169.6,505.1c0,0.1,0,0.1-0.1,0.1c0,0-0.1,0-0.1,0c-2.5-2.7-6.2-4.5-9.6-5.8h-0.1c-2.2,0.6-4.3,1.3-6.5,2
		c1.4,1.9,2.3,4.2,2.6,6.6c0,0.1-0.1,0.1-0.2,0.1c-0.9-0.9-2-1.7-3.1-2.4c-1.3-0.8-2.7-1.6-4.1-2.2l-0.5-0.2
		c-1.6,0.6-3.3,1.2-4.9,1.9c0.9,1.7,1.2,3.7,1,5.6c0,0.1-0.1,0.1-0.1,0.1c0,0,0,0,0,0c-2-1.1-4.2-2-6.5-2.6c-0.3-0.1-0.7-0.2-1-0.2
		c-10.2,4.7-20.2,9.9-29.9,15.6c0.6,2,1,4.2,0.9,6.3c0,0.1-0.1,0.1-0.1,0.1c-2.2-0.9-4.3-2.1-6.5-3.1c-2.6,1.6-5.2,3.1-7.8,4.7
		c2,1.7,3.7,3.7,5.2,5.9c0.1,0.1-0.1,0.2-0.1,0.1c-1.7-1.3-3.5-2.2-5.5-2.9c-1.1-0.4-2.3-0.6-3.4-0.8l-1.3,0.8
		c-4.5,2.7-9,5.5-13.4,8.5c2,0.6,3.8,1.6,5.5,2.8c0.1,0,0.1,0.1,0.1,0.1c0,0,0,0-0.1,0.1c-7.5,1.4-14.5,4.6-20.5,9.4
		c-3,2.5-5.7,5.3-8,8.5c-1.3,1.9-4,7.6-6.7,7.4c7.8,0.7,15.4,2.1,23.1,3.4c0.6-0.6,1.2-1.2,1.9-1.7c2.8-2.4,6-4.8,9.6-5.8
		c0.1,0,0.1,0,0.1,0.1c0,0,0,0.1,0,0.1c-2.2,2.5-4.1,5.3-5.6,8.2c6.8,0.9,13.6,1.5,20.5,1.6c2.2-3.8,4.4-8.1,9.1-8.9
		c0.1,0,0.2,0.1,0.1,0.2c-2.1,2.8-4,5.8-5.7,8.8c4.5,0,9-0.1,13.4-0.3c11.2-0.6,22.4-2,33.6-3.8c0.9-1.3,1.9-2.6,2.9-3.8
		c2.3-2.8,4.8-5.3,7.5-7.7c0,0,0.1,0,0.2,0c0,0,0,0.1,0,0.1c-1.3,2.2-2.8,4.4-3.9,6.8c-0.7,1.2-1.2,2.5-1.6,3.9
		c8.7-1.4,17.4-3,26.1-4.5l3.6-0.7c0.9-1.6,1.7-3.3,2.6-4.9c3.2-5.5,6.2-12.3,12.2-15.3c0.1,0,0.1,0,0.1,0c0,0,0,0.1,0,0.1
		c-1.1,5.4-1.6,11-1.4,16.5c10.3-3.5,19.8-9.1,25.7-18.7c4.6-7.4,8.7-16.1,14.8-24.2l-18-14.3c-11.6-9.5-24.2-12.5-38.2-11
		c0.5,2,0.6,4.2,0.5,6.2c0,0.1-0.1,0.1-0.1,0.1c0,0-0.1,0-0.1,0c-1.6-2.1-3.4-4-5.5-5.5l-2.6,0.5c-1,0.2-2,0.4-3,0.7
		C168.3,499.7,169.6,502.1,169.6,505.1z"/>
	<path class="feather3" d="M255.9,521.2c-15.6-2.2-33.8,2.5-48.9,5.5c-22.7,4.5-46.2,8.8-68.6,14.5c-13,3.3-26.3,6-39,10.5
		c-6.7,2.4-25.3,8.7-33,10.7"/>
	<path class="feather2" d="M236.9,506.4c-7.7-2.7-0.3-15.9-5.3-22.2"/>
	<path class="feather2" d="M236.9,507.7c-3-6.9,5.8-12.5,4.1-19.4"/>
	<path class="feather2" d="M237,506c-4.3-3.3-0.6-12.4,1-16.9"/>
	<path class="feather2" d="M235.2,507.2c1.4-5.4,2.8-6.7,6.9-9.3c3-2.1,6.7-2.2,8.1-6.2"/>
	<path class="feather2" d="M237.2,505.6c5.1-2.8,7.4-6.9,10.1-11.9"/>
	<path class="feather2" d="M235.1,506.2c-1.6,9.8-12.2,5.2-17.6,11.4"/>
	<path class="feather2" d="M235.6,508.7c-9.6,0.2-10,10.5-14.1,16.8"/>
	<path class="feather2" d="M233.9,508.5c0.1,7.3-10.4,7.7-13.1,14"/>
	<path class="feather2" d="M235.3,509.5c-6.8,3.9-6.3,11.4-4.1,18"/>
	<path class="feather2" d="M235.7,509.6c-3.7,2.8-6.4,9.1-1.9,12.9"/>
	<path class="feather2" d="M234.1,509.1c-4.7,5.6-12.6,2.3-17.6,7.4"/>
	<path class="feather2" d="M236.1,509.8c-6.3,3.7-6.8,11.6-2.5,17.2"/>
	<path class="feather2" d="M235.7,507.3c-1.9-6.1,7.2-10.1,8.9-16.3"/>
	<path class="feather2" d="M236.5,507.6c-1.9-6.1,9.4-9.8,11.7-14"/>
	<path class="feather2" d="M237.1,506.9c-6.1-5.8,2.4-14.5-5.7-21"/>
	<path class="feather2" d="M236.1,507.5c-4,6.3-12.8,5.5-16.7,11.3"/>
	<path class="feather2" d="M235.2,509.9c-10.6,3-10.4,9-13.7,18.3"/>
	<path class="feather2" d="M234.3,508.6c-7.8,6.8-10.3,10-10,20.5"/>
	<path class="feather2" d="M232.5,512.5c-3.9,4.4-6.2,10-6.5,15.8"/>
	<path class="feather2" d="M236.9,505c-10.1-9.9,4.7-14.6-1.5-24.1"/>
	<path class="feather2" d="M234.9,505.7c0.5-5.3,10.7-14.8,6.2-20"/>
	<path class="feather2" d="M193.1,459.3c0,0.1-0.1,0.1-0.1,0.1c0,0,0,0-0.1-0.1c-0.6-3.7-2.6-7.1-4.8-10.1c0,0,0-0.1-0.1-0.1
		c-2.2-0.7-4.3-1.3-6.5-1.9c0.1,2.4-0.5,4.8-1.5,6.9c0,0.1-0.2,0-0.2,0c-0.3-1.3-0.7-2.5-1.2-3.7c-0.6-1.4-1.4-2.8-2.2-4.1l-0.3-0.4
		c-1.7-0.4-3.4-0.8-5.2-1.2c-0.2,1.9-1.1,3.7-2.3,5.2c0,0-0.1,0.1-0.2,0c0,0,0,0,0,0c-1.1-2.1-2.4-4-3.9-5.8
		c-0.2-0.3-0.5-0.5-0.7-0.8c-11.1-1.8-22.3-3.1-33.5-3.7c-0.6,2.1-1.5,4-2.8,5.8c0,0-0.1,0-0.2,0c0,0,0,0,0,0
		c-1.3-2-2.4-4.1-3.6-6.2c-3-0.2-6.1-0.3-9.1-0.5c0.7,2.5,1,5.2,1,7.8c0,0.1-0.2,0.1-0.2,0c-0.7-2-1.7-3.8-3-5.4
		c-0.7-0.9-1.5-1.8-2.4-2.6l-1.6-0.1c-5.3-0.2-10.6-0.4-15.9-0.4c1.3,1.6,2.3,3.4,3,5.4c0,0.1,0,0.2-0.1,0.1c-7-3-14.6-4.3-22.2-3.6
		c-3.8,0.4-7.6,1.3-11.2,2.6c-2.2,0.8-7.5,4.1-9.7,2.4c6,4.9,11.6,10.3,17.3,15.7c0.8-0.1,1.7-0.3,2.5-0.4c3.7-0.5,7.6-0.7,11.2,0.5
		c0.1,0,0.1,0.1,0.1,0.1c0,0,0,0.1-0.1,0.1c-3.2,0.8-6.3,2.1-9.2,3.7c5.1,4.5,10.5,8.8,16.1,12.7c4-2,8.2-4.3,12.5-2.4
		c0.1,0,0.1,0.2,0,0.2c-3.3,1.2-6.5,2.6-9.6,4.2c3.7,2.5,7.5,4.9,11.3,7.2c9.7,5.7,19.8,10.8,30,15.6c1.5-0.6,3-1.1,4.6-1.6
		c3.4-1,6.9-1.8,10.5-2.2c0.1,0,0.1,0,0.1,0.1s0,0.1-0.1,0.1c-2.4,1.1-4.8,2.1-7,3.4c-1.2,0.6-2.4,1.4-3.5,2.3
		c8,3.7,16.2,7.2,24.2,10.8c1.1,0.5,2.3,1,3.4,1.5c1.6-0.8,3.2-1.8,4.9-2.6c5.7-2.8,12-6.8,18.7-5.9c0.1,0,0.1,0.1,0.1,0.1
		c0,0,0,0.1,0,0.1c-3.9,3.9-7.4,8.3-10.4,12.9c10.6,2.8,21.5,3.4,31.8-1.2c8-3.6,16.2-8.5,25.8-11.9l-6.9-21.9
		c-4.4-14.3-13.2-23.8-25.6-30.4c-0.7,2-1.8,3.8-3.1,5.5c0,0-0.1,0-0.2,0c0,0,0,0,0-0.1c-0.1-2.6-0.6-5.2-1.5-7.7
		c-0.8-0.4-1.6-0.7-2.4-1c-0.9-0.4-1.9-0.7-2.8-1.1C195.2,454.1,194.6,456.9,193.1,459.3z"/>
	<path class="feather2" d="M255.8,520.8c-11.7-10.5-29.4-16.7-43.6-22.6c-21.3-8.9-43.3-18.5-65.1-26.1c-12.7-4.5-25.2-9.6-38.2-12.9
		c-6.9-1.7-25.8-6.9-33.3-9.5"/>
	<path class="feather3" d="M248.3,497.9c-4.9-6.5,8.7-13.4,8-21.4"/>
	<path class="feather3" d="M247.5,499c1.4-7.4,11.7-7.1,14.2-13.8"/>
	<path class="feather3" d="M248.6,497.6c-1.7-5.1,6.4-10.7,10.2-13.5"/>
	<path class="feather3" d="M246.5,497.6c4.2-3.7,6.1-4,10.9-3.9c3.7-0.1,6.8,1.9,10.2-0.7"/>
	<path class="feather3" d="M249,497.4c5.7,0.5,10-1.6,15-4.2"/>
	<path class="feather3" d="M246.9,496.7c-6.9,7.3-13.1-2.5-21-0.3"/>
	<path class="feather3" d="M246,499.1c-8.1-5.1-14.2,3.1-21,6.1"/>
	<path class="feather3" d="M244.6,497.9c-3.9,6.1-12.9,0.6-18.6,4.3"/>
	<path class="feather3" d="M245.3,499.6c-7.9-0.5-11.5,6-13.4,12.7"/>
	<path class="feather3" d="M245.5,499.9c-4.6,0.2-10.3,4-8.7,9.7"/>
	<path class="feather3" d="M244.5,498.5c-7,2-11.8-5.1-18.7-3.6"/>
	<path class="feather3" d="M245.8,500.2c-7.3-0.5-12.1,5.9-11.6,13"/>
	<path class="feather3" d="M246.7,497.9c1.8-6.1,11.6-4.4,16.5-8.6"/>
	<path class="feather3" d="M247.3,498.6c1.8-6.1,13.2-3,17.5-5.1"/>
	<path class="feather3" d="M248.2,498.5c-1.9-8.2,10.1-10.8,7-20.7"/>
	<path class="feather3" d="M247,498.3c-6.8,3-13.7-2.6-20.2,0.1"/>
	<path class="feather3" d="M244.9,499.8c-10.5-3.4-13.7,1.7-21.6,7.6"/>
	<path class="feather3" d="M244.9,498.3c-10.3,1.3-14.1,2.5-19.7,11.5"/>
	<path class="feather3" d="M241.2,500.5c-5.7,1.5-10.7,4.8-14.2,9.5"/>
	<path class="feather3" d="M249,496.8c-2.9-13.8,12.1-9.5,12.2-20.8"/>
	<path class="feather3" d="M247,496.2c3.3-4.1,17.1-6.4,16.2-13.2"/>
	<path class="feather3" d="M238.2,434.4c-0.1,0-0.2-0.1-0.1-0.1c1.5-3.4,1.8-7.4,1.7-11.1v-0.1c-1.4-1.8-2.9-3.5-4.3-5.2
		c-1.3,2-3,3.7-5.1,4.9c-0.1,0-0.2-0.1-0.1-0.1c0.5-1.2,0.8-2.5,1-3.8c0.3-1.5,0.4-3.1,0.5-4.7c0-0.2,0-0.3,0-0.5
		c-1.2-1.3-2.4-2.6-3.7-3.8c-1.3,1.5-3,2.5-4.8,3c-0.1,0-0.1,0-0.1-0.1c0,0,0,0,0,0c0.3-2.3,0.3-4.7,0-7c0-0.3-0.1-0.7-0.2-1
		c-8.2-7.7-16.8-15-25.8-21.7c-1.6,1.4-3.5,2.5-5.5,3.3c-0.1,0-0.1,0-0.1-0.1c0,0,0,0,0,0c0-2.4,0.3-4.8,0.4-7.2
		c-2.4-1.8-4.9-3.7-7.3-5.5c-0.8,2.5-2,4.8-3.5,7c-0.1,0.1-0.2,0-0.2-0.1c0.5-2,0.7-4.1,0.6-6.2c-0.1-1.2-0.3-2.4-0.6-3.5l-1.3-0.9
		c-4.2-3.1-8.6-6.2-13-9.1c0.2,2.1,0,4.1-0.5,6.1c0,0.1-0.1,0.1-0.2,0c-4.1-6.4-9.8-11.7-16.5-15.4c-3.4-1.8-7-3.2-10.8-4.1
		c-2.2-0.5-8.6-0.8-9.4-3.4c2.3,7.4,3.9,15.1,5.7,22.6c0.8,0.3,1.5,0.7,2.3,1.1c3.3,1.6,6.7,3.7,9,6.6c0.1,0.1,0,0.2-0.1,0.2
		c-3.1-1.1-6.4-1.7-9.7-2c1.7,6.6,3.8,13.1,6.3,19.5c4.4,0.6,9.1,1,11.7,5c0,0.1,0,0.1,0,0.2c0,0,0,0-0.1,0
		c-3.4-0.8-6.8-1.5-10.3-1.9c1.7,4.2,3.5,8.3,5.4,12.3c4.9,10.1,10.4,20,16.2,29.6c1.6,0.3,3.1,0.8,4.7,1.2c3.4,1.1,6.8,2.4,10,4
		c0,0,0.1,0.1,0,0.2c0,0-0.1,0-0.1,0c-2.6-0.4-5.1-0.9-7.7-1.1c-1.4-0.1-2.8-0.1-4.2,0c4.6,7.5,9.4,15,14.1,22.4
		c0.7,1,1.3,2.1,2,3.1c1.8,0.2,3.7,0.3,5.5,0.6c6.3,0.9,13.8,1,18.8,5.5c0,0,0,0.1,0,0.2c0,0,0,0-0.1,0c-5.4,1.1-10.7,2.8-15.8,5
		c7.2,8.2,16,14.8,27.1,16.7c8.6,1.5,18.2,1.9,28,4.5l6.4-22.1c4.3-14.4,2.3-27.1-4.4-39.5c-1.7,1.2-3.6,2.2-5.6,2.8
		c-0.1,0-0.1,0-0.1-0.1c0,0,0-0.1,0-0.1c1.4-2.2,2.4-4.7,3-7.2c-0.5-0.7-1-1.5-1.5-2.2s-1.2-1.7-1.8-2.5
		C242.8,431.2,240.7,433.2,238.2,434.4z"/>
	<path class="feather3" d="M256,520.3c-3.9-15.2-15.1-30.3-23.7-43.1c-12.8-19.2-25.7-39.4-39.5-57.9c-8-10.8-15.6-22-24.6-32
		c-4.7-5.3-17.6-20.1-22.4-26.5"/>
</g>
</svg>
