<?xml version="1.0" encoding="utf-8"?>
<!-- Generator: Adobe Illustrator 24.0.1, SVG Export Plug-In . SVG Version: 6.00 Build 0)  -->
<svg version="1.1" id="front_hair_1_" xmlns="http://www.w3.org/2000/svg" xmlns:xlink="http://www.w3.org/1999/xlink" x="0px"
	 y="0px" viewBox="0 0 517 677.7" style="enable-background:new 0 0 517 677.7;" xml:space="preserve">
<style type="text/css">
	.front-hair1{fill:#01047A;}
</style>
<g id="front_hair">
	<path class="front-hair1" d="M314.3,222.3c-0.1,0.6-0.5,0.7-1,0.8c-1.9,0.6-3.8,1-5.8,1.1c-3.3,0.2-6.6,0.3-9.8-0.2
		c-6.7-1-12.1,1.1-16.8,5.8c-2.4,2.3-4.7,4.7-7.3,6.9c-3.8,3.1-7.9,5.7-12.3,8c-5.8,3-11.4,2.3-16.8-1c-2.6-1.6-4.8-3.8-7-5.9
		c-2.9-2.9-6-5.7-9-8.6c-5.5-5.3-11.7-5.7-18.5-3c-0.9,0.4-1.7,1.2-2.8,1c0,0-17.6,6.5-22.9-7.7c-5.4-14.2,56.8-62.1,85.9-56.5
		C299.5,168.6,378.6,228.3,314.3,222.3z"/>
</g>
</svg>
