<?xml version="1.0" encoding="utf-8"?>
<!-- Generator: Adobe Illustrator 24.0.1, SVG Export Plug-In . SVG Version: 6.00 Build 0)  -->
<svg version="1.1" id="front_hair_1_" xmlns="http://www.w3.org/2000/svg" xmlns:xlink="http://www.w3.org/1999/xlink" x="0px"
	 y="0px" viewBox="0 0 518.1 921.4" style="enable-background:new 0 0 518.1 921.4;" xml:space="preserve">
<style type="text/css">
	.front-hair1{fill:#01047A;}
</style>
<g id="front_hair">
	<path class="front-hair1" d="M323.2,518c-0.1,0.7-0.6,0.8-1.2,1c-2.2,0.7-4.5,1.2-6.8,1.3c-3.8,0.3-7.7,0.2-11.5-0.3
		c-7.9-1.2-14.3,1.3-19.8,6.8c-2.8,2.8-5.5,5.6-8.5,8.1c-4.5,3.6-9.3,6.8-14.4,9.4c-6.8,3.5-13.4,2.7-19.8-1.2c-3-2-5.7-4.4-8.2-7
		c-3.5-3.4-7-6.8-10.6-10.1c-6.5-6.2-13.8-6.7-21.7-3.5c-1.1,0.4-2,1.4-3.3,1.1c0,0-20.7,7.7-27-9s66.8-73.1,101.1-66.4
		S398.9,525.2,323.2,518z"/>
</g>
</svg>
