<?xml version="1.0" encoding="utf-8"?>
<!-- Generator: Adobe Illustrator 24.0.1, SVG Export Plug-In . SVG Version: 6.00 Build 0)  -->
<svg version="1.1" id="hair_1_" xmlns="http://www.w3.org/2000/svg" xmlns:xlink="http://www.w3.org/1999/xlink" x="0px" y="0px"
	 viewBox="0 0 517 677.7" style="enable-background:new 0 0 517 677.7;" xml:space="preserve">
<style type="text/css">
	.hair1{fill:#01047A;}
</style>
<g id="hair">
	<path class="hair1" d="M183,478.2c-7.1,3.2-14.3,1.4-19.5-5.1c-2.4-3-4.1-6.4-5.3-10c-2.1-6-3.9-12-4-18.4
		c-0.1-6.5,1.1-12.8,3.4-18.9c0.6-1.7,1.3-3.4,1.9-5.1c0.5-1.3,0.4-2.5-0.3-3.7c-0.5-1-1-2.1-1.6-3.1c-4.6-8.3-5.7-17.1-3.8-26.4
		c1.4-7.2,4.6-13.5,9.3-19c2.2-2.6,4.5-5.1,6.8-7.5c1.3-1.4,2.8-2.5,4.7-3.2c1.1-0.4,2.1-1,3-1.7c1.6-1.1,3.3-2.2,5-3.2
		c2.5-1.4,5.1-2.2,7.9-2.4c5.7-0.4,11.4-0.8,17.1-1.1c7.1-0.3,14.1,1,21,2.6c5.1,1.1,9.9,2.9,14.4,5.5c4.1,2.4,7.1,5.6,8.4,10.3
		c0.5,1.9,1.5,3.6,2.7,5.2c6,7.4,9.9,15.9,13.1,24.7c3,8.2,3.8,16.8,2.7,25.5c-0.5,4.2-2.1,8.2-4.5,11.7c-4.4,6.5-4.3,6.2-5.8,14.5
		c-1,5.8-2.6,11.5-4.3,17.2c-0.6,1.9-1.3,3.7-2.2,5.5c-4.1,8-10.8,12.3-19.4,13.9c-1,0.2-2,0.4-3,0.6c-1.5,0.3-2.9,0.9-4,1.9
		c-6.2,5.7-13.7,6.7-21.7,5.9c-3.1-0.3-6.1-1.1-9-2.3c-6.1-2.6-10.7-6.7-12.5-13.3C183.2,478.3,183.1,478.3,183,478.2z"/>
	<path class="hair1" d="M340.3,478.2c-0.5,1.2-0.7,2.4-1.3,3.6c-2.1,3.9-5,6.9-9,8.9c-7.5,3.7-15.4,4.7-23.6,2.8
		c-3.3-0.8-6.2-2.4-8.8-4.6c-1.7-1.5-3.7-2.4-6-2.8c-1.6-0.3-3.2-0.7-4.8-1.1c-7.8-1.9-13.2-6.7-16.7-13.7c-1.1-2.3-2-4.6-2.6-7.1
		c-1.7-6.1-3.4-12.3-4.3-18.6c-0.5-3.1-1.6-5.8-3.5-8.4c-2.9-3.9-5.1-8.2-6-13c-0.8-4.2-0.8-8.5-0.4-12.8c1.2-13.4,6.7-25.1,14.1-36
		c2.1-3.1,4.3-6.1,5.3-9.8c0.8-2.7,2.7-4.8,5-6.5c3.1-2.3,6.6-4.1,10.3-5.3c8.4-2.8,17.1-4.5,26-4.5c6.5,0,13,0.7,19.5,1.2
		c3.2,0.3,6.2,1.5,8.9,3.3c2.6,1.7,5.1,3.6,8,4.7c0.9,0.3,1.6,1,2.3,1.7c4,4.1,7.9,8.2,11.1,13c4.2,6.4,6.2,13.6,6.6,21.1
		c0.4,6.8-1.2,13.2-4.5,19.2c-0.6,1.1-1.2,2.3-1.8,3.4c-0.6,1.2-0.7,2.5-0.2,3.7c0.7,1.7,1.3,3.4,1.9,5.1c2.3,6.2,3.6,12.6,3.3,19.1
		c-0.4,8.8-2.9,17.1-7,24.9c-0.9,1.7-2.1,3.3-3.5,4.7C353.2,479.9,347.3,481.1,340.3,478.2z"/>
	<path class="hair1" d="M164.3,270.4c-4.4-6.5-7.2-13.3-8-20.8c-1.2-11.1,2.4-20.6,10.3-28.4c1.7-1.6,3.7-2.8,5.8-3.8
		c2.1-1,1.8-0.8,1.1-2.9c-0.6-1.9-1.5-3.8-2.2-5.7c-1.6-4.4-3-8.9-3.6-13.6c-0.6-4.8,0.2-9.3,2.4-13.6c2.8-5.4,6.5-10,11.3-13.8
		c8.7-6.9,18.4-11.8,29.2-14.3c2.9-0.7,5.8-1,8.7-0.6c1,0.1,1.3-0.2,1.5-1.1c3.3-11.5,10.8-18.7,22.2-22c9-2.6,18.1-2.3,27.1,0.2
		c4.1,1.2,7.8,3.2,10.7,6.4c0.8,0.8,1.4,0.9,2.4,0.5c7.3-2.9,14.9-4.2,22.7-2.2c10.4,2.7,16.9,9.6,20.4,19.6
		c0.8,2.3,0.8,4.8,0.5,7.3c-0.2,1.3-0.1,1.4,1.2,1.4c7.6-0.1,14.2,2.7,20.1,7.2c1.5,1.1,2.8,2.5,3.9,4.1c1.7,2.6,2.2,5.4,1.5,8.4
		c-0.3,1.2-0.7,2.4-1,3.5c-0.3,1.3-0.3,1.4,1.1,1.8c0.7,0.2,1.5,0.4,2.2,0.5c5.4,1.4,10.2,4.1,14.1,8.1c5,5.1,6.1,11,3.9,17.6
		c-0.7,2.1-1.7,4-2.8,5.9c-1.2,2.2-2.4,4.4-3.3,6.8c-1,2.5-0.9,2.5,1.5,3.2c1.4,0.4,2.7,0.9,4,1.5c4.9,2.4,6.9,7,5.3,12.2
		c-0.6,2-1.7,3.8-2.9,5.6c-1.3,1.9-2.5,3.9-3.6,5.9c-0.7,1.2-0.6,2.3,0.4,3.3c0.3,0.3,0.5,0.6,0.8,0.9c3.7,3.7,4.3,8.2,3,13
		c-0.8,3-2.4,5.6-4.5,7.9c-1.6,1.7-3.1,3.4-4.4,5.4c-1.1,1.6-1.1,1.6,0.2,3c1.8,2,2.1,4.1,0.8,6.6c-1.1,2.1-2.6,3.9-4.1,5.9
		c-0.8,1-1.6,2-2.2,3.2c-0.6,1.1-1.6,2-2.6,2.8c-2.4,1.7-5.1,2.9-7.8,3.9c-0.9,0.3-1.9,0.5-2.7-0.2c-0.5-0.4-1-0.3-1.5-0.2
		c-2.4,0.4-4.6-0.2-6.8-1c-1.8-0.7-3-1.9-3.4-3.7c-0.3-1.6-1.3-2.1-2.8-2.5c-6.1-1.5-12.3-2.1-18.5-2.8c-5.3-0.6-10.2-2-14.8-4.7
		c-2.5-1.5-5.1-2.9-7.9-3.8c-6.1-2-11.8-1.2-17.1,2.4c-1.2,0.8-2.3,1.1-3.6,0.4c-3.5-2-7.5-2.4-11.4-2.8c-6.1-0.6-12.1,0.1-18,1
		c-3.1,0.5-6.2,0.9-9.3,1.3c-2.3,0.3-4.6,0.2-6.9-0.5c-5.4-1.7-11-1.6-16.6-1.2c-5.4,0.4,59.1,18.6,54.2,20.8
		c-1.7,0.7-3.3,1.5-4.7,2.8c-0.6,0.6-1.4,0.8-2.2,1c-1.2,0.2-2.4,0.5-3.5,1c-1.6,0.7,5.3,7,4.6,8.6c-0.3,0.7-17.4,4.1-17.7,4.8
		c-0.3,1-23.8-7.2-23.4-6.1c0.5,1.2,0,1.7-1.3,1.9c-1.9,0.3-40-15.6-40.8-17.3c-0.2-0.5-0.6-0.9-1-1.2c-3.3-2.9-6.6-5.8-9.9-8.8
		c-4.5-4-7.2-8.9-8-14.9c-0.4-3.2,0.2-6.2,1.5-9.1C159.8,273.3,161.8,271.6,164.3,270.4z"/>
</g>
</svg>
