<?xml version="1.0" encoding="utf-8"?>
<!-- Generator: Adobe Illustrator 24.0.1, SVG Export Plug-In . SVG Version: 6.00 Build 0)  -->
<svg version="1.1" id="hair_1_" xmlns="http://www.w3.org/2000/svg" xmlns:xlink="http://www.w3.org/1999/xlink" x="0px"
	 y="0px" viewBox="0 0 518.1 921.4" style="enable-background:new 0 0 518.1 921.4;" xml:space="preserve">
<style type="text/css">
	.hair1{fill:#01047A;}
</style>
<g id="hair">
	<path class="hair1" d="M168.8,819.1c-8.4,3.8-16.8,1.6-23-6c-2.8-3.5-4.9-7.5-6.3-11.8c-2.5-7-4.5-14.2-4.7-21.7
		c-0.1-7.6,1.3-15.2,4-22.3c0.8-2,1.5-4,2.3-6c0.6-1.4,0.5-3-0.3-4.4c-0.6-1.2-1.2-2.4-1.9-3.6c-5.4-9.8-6.7-20.2-4.5-31.1
		c1.7-8.3,5.4-16,10.9-22.4c2.6-3,5.3-6,8.1-8.9c1.5-1.7,3.4-3,5.5-3.7c1.3-0.5,2.5-1.2,3.5-2c1.9-1.3,3.8-2.6,5.8-3.8
		c2.8-1.6,6-2.6,9.3-2.8c6.7-0.5,13.4-1,20.1-1.3c8.4-0.4,16.5,1.2,24.7,3c5.9,1.3,11.7,3.5,16.9,6.5c4.9,2.8,8.4,6.6,9.9,12.1
		c0.6,2.2,1.7,4.3,3.2,6.1c7,8.7,11.6,18.7,15.4,29.1c3.4,9.6,4.5,19.9,3.2,30c-0.7,4.9-2.5,9.6-5.3,13.7c-5.2,7.7-5.1,7.3-6.9,17.1
		c-1.3,6.8-3,13.6-5.1,20.2c-0.7,2.2-1.6,4.4-2.7,6.4c-4.8,9.4-12.7,14.5-22.9,16.4c-1.2,0.2-2.3,0.5-3.5,0.7
		c-1.7,0.3-3.4,1.1-4.7,2.3c-7.3,6.7-16.1,7.9-25.5,6.9c-3.7-0.4-7.2-1.3-10.6-2.8c-7.2-3-12.5-7.8-14.7-15.6
		C169.1,819.2,168.9,819.2,168.8,819.1z"/>
	<path class="hair1" d="M353.8,819c-0.4,1.4-1,2.8-1.6,4.2c-2.3,4.5-6,8.2-10.5,10.5c-8.5,4.4-18.4,5.5-27.7,3.3
		c-3.8-0.9-7.4-2.8-10.3-5.4c-2-1.8-4.4-2.9-7-3.3c-1.9-0.3-3.7-0.8-5.6-1.3c-9.1-2.2-15.5-7.8-19.7-16.2c-1.3-2.7-2.3-5.4-3.1-8.3
		c-2.1-7.2-3.8-14.5-5.1-21.9c-0.5-3.6-1.9-7-4.1-9.8c-3.5-4.5-6-9.7-7.1-15.3c-0.9-5-1-10-0.5-15.1c1.4-15.7,7.9-29.5,16.6-42.3
		c2.5-3.7,5-7.2,6.3-11.5c1-3.1,3.1-5.8,5.9-7.7c3.7-2.7,7.7-4.8,12.1-6.3c9.8-3.4,20.1-5.2,30.5-5.3c7.7,0,15.3,0.8,23,1.4
		c3.8,0.4,7.4,1.7,10.5,3.9c3.1,2,6,4.3,9.5,5.6c1,0.5,1.9,1.2,2.7,2c4.7,4.8,9.3,9.6,13,15.3c4.8,7.4,7.5,16,7.8,24.9
		c0.4,7.9-1.5,15.7-5.3,22.6c-0.7,1.3-1.4,2.7-2.1,4c-0.7,1.4-0.8,3-0.3,4.4c0.8,2,1.5,4,2.3,6c2.8,7.2,4.1,14.8,3.9,22.5
		c-0.5,10.3-3.3,20.3-8.2,29.3c-1.1,2-2.5,3.9-4.2,5.5C369.1,821.1,362.1,822.5,353.8,819z"/>
	<path class="hair1" d="M146.9,574.6c-5.1-7.2-8.4-15.6-9.4-24.4c-1.4-13.1,2.8-24.2,12.1-33.5c2-1.9,4.3-3.4,6.8-4.4
		c2.5-1.2,2.1-1,1.3-3.4s-1.7-4.5-2.5-6.7c-2-5.1-3.4-10.5-4.2-16c-0.7-5.5,0.2-11.1,2.8-16c3.2-6.3,7.7-11.8,13.2-16.2
		c10-8.1,21.8-13.9,34.3-16.8c3.3-0.8,6.8-1.1,10.2-0.8c1.1,0.1,1.5-0.3,1.8-1.3c3.8-13.5,12.7-22,26.1-25.9
		c10.5-2.9,21.5-2.9,31.9,0.2c4.8,1.3,9.2,3.8,12.6,7.5c0.9,1,1.6,1,2.9,0.5c8.6-3.5,17.6-5,26.7-2.6c12.2,3.2,19.9,11.3,24,23
		c0.8,2.8,1,5.7,0.6,8.5c-0.2,1.6-0.1,1.6,1.4,1.6c8.9-0.1,16.7,3.2,23.7,8.5c1.8,1.3,3.4,3,4.6,4.8c2,2.9,2.6,6.5,1.8,9.8
		c-0.3,1.4-0.8,2.8-1.1,4.2c-0.4,1.6-0.3,1.7,1.3,2.2c0.9,0.2,1.7,0.4,2.6,0.6c6.3,1.6,12.1,4.9,16.6,9.5c5.9,6,7.2,12.9,4.6,20.8
		c-0.9,2.4-2,4.7-3.3,6.9c-1.5,2.6-2.8,5.3-3.9,8c-1.1,2.9-1.1,2.9,1.8,3.8c1.6,0.5,3.2,1.1,4.7,1.8c5.8,2.8,8.1,8.2,6.2,14.4
		c-0.8,2.3-1.9,4.6-3.4,6.6c-1.5,2.3-2.9,4.6-4.2,7c-0.9,1.2-0.7,2.9,0.5,3.9c0.3,0.3,0.6,0.8,0.9,1.1c4.4,4.4,5,9.6,3.6,15.3
		c-1,3.5-2.8,6.7-5.3,9.3c-1.9,2-3.6,4.1-5.1,6.3c-1.2,1.9-1.2,1.9,0.3,3.5c2.1,2.3,2.5,4.8,1,7.7c-1.4,2.4-3,4.7-4.8,6.9
		c-0.9,1.2-1.8,2.4-2.6,3.7c-0.8,1.3-1.8,2.4-3.1,3.3c-2.9,1.9-5.9,3.5-9.2,4.6c-1,0.5-2.3,0.4-3.2-0.3c-0.5-0.4-1.2-0.5-1.8-0.3
		c-2.7,0.3-5.5-0.1-8-1.1c-2-0.6-3.6-2.3-4-4.4c-0.4-1.9-1.5-2.5-3.2-2.9c-7.2-1.6-14.5-2.7-21.8-3.3c-6.1-0.5-12.1-2.5-17.4-5.6
		c-2.9-1.8-6-3.3-9.3-4.5c-6.8-2.4-14.3-1.4-20.1,2.8c-1.4,1-2.7,1.3-4.2,0.5c-4.2-2.3-8.8-2.8-13.4-3.3c-7.1-0.8-14.2,0.1-21.2,1.2
		c-3.6,0.6-7.3,1.1-10.9,1.5c-2.7,0.4-5.5,0.2-8.1-0.6c-6.4-2-13-1.9-19.5-1.4c-6.3,0.5,69.6,21.8,63.7,24.4c-2,0.8-3.9,1.9-5.5,3.3
		c-0.7,0.6-1.6,1-2.6,1.1c-1.4,0.2-2.8,0.6-4.1,1.2c-1.9,0.8,6.2,8.2,5.4,10.1c-0.3,0.8-20.5,4.8-20.8,5.7c-0.4,1.1-28-8.5-27.5-7.2
		c0.5,1.4,0,2-1.5,2.2c-2.2,0.3-47.1-18.4-48-20.4c-0.3-0.6-0.7-1.1-1.2-1.4c-3.9-3.4-7.8-6.8-11.7-10.3c-5.2-4.5-8.6-10.7-9.4-17.6
		c-0.4-3.7,0.2-7.4,1.8-10.7C141.5,578.2,143.9,575.9,146.9,574.6z"/>
</g>
</svg>
