<?xml version="1.0" encoding="utf-8"?>
<!-- Generator: Adobe Illustrator 24.0.1, SVG Export Plug-In . SVG Version: 6.00 Build 0)  -->
<svg version="1.1" id="feather-hair_1_" xmlns="http://www.w3.org/2000/svg" xmlns:xlink="http://www.w3.org/1999/xlink" x="0px"
	 y="0px" viewBox="0 0 517 677.7" style="enable-background:new 0 0 517 677.7;" xml:space="preserve">
<style type="text/css">
	.nose1{fill:#F3EFEF;}
	.nose2{opacity:0.26;}
	.nose3{fill:#2326B7;}
	.nose4{fill:#3C3CE8;}
	.nose5{fill:#7771D0;}
</style>
<g id="nose">
	<path className="nose1" d="M248.3,338.9c0.2-1.7,0.7-3.7,1.6-5.7c2.4-5.2,5.4-10.1,8.5-14.8c1.8-2.7,3-5.6,3.9-8.7
		c0.5-1.8,0.2-3.3-1.1-4.7c-1.1-1.2-2.4-2.2-3.7-3.2c-3.4-2.5-4.7-5.8-4-9.9c0.1-0.7,0-1.5,0.4-2.2c0.5-0.9,1.5-1.5,2.3-1.3
		c0.9,0.3,1.5,1.3,1.3,2.4c-0.1,0.5-0.2,1.1-0.3,1.6c-0.3,2.7,0.7,4.7,3,6.2c1.2,0.7,2.2,1.5,3.3,2.4c3.4,2.9,4.6,6.4,3.3,10.7
		c-1.3,4.2-2.9,8.2-5.2,11.9c-2.3,3.6-4.4,7.3-6.3,11.2c-0.5,1-0.8,2.1-1.2,3.2c-0.3,0.9,0,1.4,0.8,1.7c1.3,0.5,2.7,1,4,1.5
		c1.2,0.4,2.4,1,3.3,2c1,1.2,1.2,2.2,0.5,3.3c-0.7,1.1-2.2,1.9-3.3,1.2c-2.6-1.5-5.6-2-8.2-3.5C249.2,343,248.2,341.5,248.3,338.9z"
		/>
	<rect x="121.3" y="278.6" className="nose1" width="269.3" height="6.9"/>
	<g className="nose2">
		<path className="nose3" d="M243.4,256c1.2,2.1,2.3,4.3,3.4,6.4c0.4,0.7,1,1.7,0.3,2.2c-0.8,0.6-1.6-0.4-2.1-1c-1.5-1.7-3-3.4-4.5-5.2
			c-0.2-0.4-0.5-0.8-0.6-1.3c-0.1-0.9,0.1-1.6,0.9-2.1C242,254.5,242.7,255.2,243.4,256z"/>
		<path className="nose4" d="M267.2,260.6c0.5-2.4,1.2-4.9,2.4-7.1c0.2-0.4,0.6-0.7,1-1c1-0.6,2.1,0,2.2,1.2c0.1,0.6-0.2,1.2-0.4,1.7
			c-0.9,1.7-1.7,3.4-2.6,5c-0.2,0.4-0.5,0.8-0.8,1.1c-0.3,0.3-0.7,0.7-1.2,0.5C267.1,261.7,267.2,261.2,267.2,260.6z"/>
		<path className="nose4" d="M256,254.9c-0.2,1.4-0.3,2.7-0.5,4.1c0,0.3-0.2,0.7-0.6,0.7c-0.5,0.1-0.8-0.2-0.9-0.6c-0.6-1.4-1-2.8-0.9-4.3
			c0-1.1,0.6-1.6,1.5-1.6C255.5,253.1,256,253.7,256,254.9z"/>
		<path className="nose5" d="M243.4,256c-0.2-0.1-0.5-0.2-0.7-0.4c-0.6-0.4-1.2-0.5-1.9,0c-0.6,0.4-0.8,1-0.7,1.8c0.1,0.4,0.2,0.8,0.3,1.2
			c-0.4-0.2-0.6-0.5-0.7-0.9c-0.4-1.3,0-2.4,1-2.9C241.8,254.3,242.5,254.6,243.4,256z"/>
	</g>
</g>
</svg>
