<?xml version="1.0" encoding="utf-8"?>
<!-- Generator: Adobe Illustrator 24.0.1, SVG Export Plug-In . SVG Version: 6.00 Build 0)  -->
<svg version="1.1" id="Layer_11" xmlns="http://www.w3.org/2000/svg" xmlns:xlink="http://www.w3.org/1999/xlink" x="0px" y="0px"
	 viewBox="0 0 518.1 921.4" style="enable-background:new 0 0 518.1 921.4;" xml:space="preserve">
<style type="text/css">
	.nose1{fill:#F3EFEF;}
	.nose2{opacity:0.26;}
	.nose3{fill:#2326B7;}
	.nose4{fill:#3C3CE8;}
	.nose5{fill:#7771D0;}
</style>
<title>Test</title>
<g id="nose">
	<path class="nose1" d="M245.6,655.2c0.3-2.3,0.9-4.5,1.8-6.7c2.9-6.1,6.2-11.9,10-17.4c2-3.2,3.6-6.6,4.6-10.2
		c0.7-1.9,0.2-4.1-1.3-5.5c-1.4-1.4-2.8-2.6-4.4-3.7c-3.9-2.5-5.7-7.2-4.7-11.7c0-0.9,0.2-1.7,0.5-2.6c0.5-1.1,1.5-1.7,2.7-1.5
		c1.2,0.4,1.9,1.6,1.6,2.8c-0.1,0.6-0.2,1.2-0.3,1.9c-0.5,2.9,1,5.8,3.6,7.3c1.4,0.8,2.7,1.8,3.9,2.8c4,3.3,5.5,7.5,3.9,12.6
		c-1.4,4.9-3.5,9.6-6.2,14c-2.7,4.2-5.2,8.6-7.4,13.2c-0.6,1.2-1,2.5-1.4,3.8c-0.4,0.7-0.1,1.6,0.6,1.9c0.1,0.1,0.2,0.1,0.4,0.1
		c1.6,0.6,3.1,1.2,4.7,1.7c1.4,0.4,2.8,1.2,3.8,2.3c1.2,1.4,1.4,2.6,0.6,3.9s-2.5,2.2-3.9,1.4c-3.1-1.8-6.6-2.3-9.7-4.1
		C246.6,660.1,245.6,658.3,245.6,655.2z"/>
	<rect x="96.2" y="584.3" class="nose1" width="316.8" height="8.1"/>
	<g class="nose2">
		<path class="nose3" d="M239.8,557.7c1.4,2.5,2.7,5,4,7.5c0.4,0.8,1.2,2,0.4,2.6c-1,0.7-1.9-0.4-2.5-1.1c-1.8-2-3.6-4-5.3-6.1
			c-0.3-0.5-0.5-1-0.7-1.5c-0.2-1,0.2-2,1.1-2.4C238.2,556,239,556.7,239.8,557.7z"/>
		<path class="nose4" d="M267.8,563.1c0.5-2.9,1.5-5.8,2.9-8.4c0.3-0.5,0.7-0.9,1.2-1.2c0.7-0.5,1.8-0.3,2.3,0.4
			c0.2,0.3,0.3,0.6,0.3,0.9c0,0.7-0.2,1.4-0.5,2.1c-1,2-2,4-3.1,5.9c-0.3,0.5-0.6,0.9-1,1.3c-0.4,0.4-0.9,0.8-1.5,0.5
			S267.8,563.8,267.8,563.1z"/>
		<path class="nose4" d="M254.7,556.3c-0.2,1.6-0.4,3.2-0.6,4.8c0,0.4-0.3,0.8-0.7,0.9c-0.5,0.1-1-0.2-1.1-0.7
			c-0.7-1.6-1.1-3.3-1.1-5.1c0.1-1.2,0.7-1.8,1.7-1.9S254.7,555,254.7,556.3z"/>
		<path class="nose5" d="M239.8,557.7c-0.3-0.1-0.5-0.3-0.8-0.5c-0.6-0.5-1.5-0.5-2.2,0c-0.7,0.4-1,1.3-0.8,2.1
			c0.1,0.5,0.2,0.9,0.3,1.4c-0.4-0.2-0.8-0.6-0.9-1c-0.6-1.3-0.1-2.8,1.2-3.4C238,555.6,238.8,556.1,239.8,557.7z"/>
	</g>
</g>
</svg>
